<?xml version="1.0" encoding="utf-8"?>
<!-- Generator: Adobe Illustrator 19.0.0, SVG Export Plug-In . SVG Version: 6.00 Build 0)  -->
<svg version="1.1" id="Layer_1" xmlns="http://www.w3.org/2000/svg" xmlns:xlink="http://www.w3.org/1999/xlink" x="0px" y="0px"
	 viewBox="0 0 512 512" style="enable-background:new 0 0 512 512;" xml:space="preserve">
<g id="XMLID_1_">
	<path id="XMLID_8_" d="M256,0C148.5,0,40.1,13.7,40.1,107.5v256c0,52.1,42.7,94.7,94.7,94.7l-40.1,40.1V512h59.7l53.8-53.8h101.5
		l53.8,53.8h53.8v-13.7l-40.1-40.1c52.1,0,94.7-42.7,94.7-94.7v-256C471.9,13.7,375.5,0,256,0z M134.8,404.5
		c-22.2,0-40.1-17.9-40.1-40.1s17.9-40.1,40.1-40.1c22.2,0,40.1,17.9,40.1,40.1C174.9,386.6,157,404.5,134.8,404.5z M228.7,215.9
		h-134V107.5h134.8v108.4H228.7z M283.3,215.9V107.5h134.8V215H283.3V215.9z M377.2,404.5c-22.2,0-40.1-17.9-40.1-40.1
		s17.9-40.1,40.1-40.1c22.2,0,40.1,17.9,40.1,40.1C417.3,386.6,399.4,404.5,377.2,404.5z" fill="#145aa6"/>
</g>
</svg>
