<svg width="24" height="24" viewBox="0 0 24 24" fill="none" xmlns="http://www.w3.org/2000/svg">
<path d="M7.73998 21.3502C6.80988 21.3476 5.91863 20.9769 5.26095 20.3192C4.60327 19.6616 4.23262 18.7703 4.22998 17.8402V14.9402C4.22998 14.744 4.30794 14.5557 4.44672 14.417C4.5855 14.2782 4.77372 14.2002 4.96998 14.2002C5.16624 14.2002 5.35446 14.2782 5.49324 14.417C5.63202 14.5557 5.70998 14.744 5.70998 14.9402V17.8402C5.70998 18.3706 5.92069 18.8794 6.29577 19.2544C6.67084 19.6295 7.17955 19.8402 7.70998 19.8402H16.23C16.7604 19.8402 17.2691 19.6295 17.6442 19.2544C18.0193 18.8794 18.23 18.3706 18.23 17.8402V6.23021C18.23 5.69978 18.0193 5.19107 17.6442 4.816C17.2691 4.44093 16.7604 4.23021 16.23 4.23021H8.89998C8.70372 4.23021 8.5155 4.15225 8.37672 4.01347C8.23795 3.8747 8.15998 3.68648 8.15998 3.49021C8.15998 3.29395 8.23795 3.10573 8.37672 2.96696C8.5155 2.82818 8.70372 2.75021 8.89998 2.75021H16.26C16.7209 2.75021 17.1773 2.841 17.6032 3.0174C18.0291 3.19379 18.416 3.45234 18.7419 3.77827C19.0679 4.1042 19.3264 4.49114 19.5028 4.917C19.6792 5.34285 19.77 5.79928 19.77 6.26022V17.8402C19.7673 18.7703 19.3967 19.6616 18.739 20.3192C18.0813 20.9769 17.1901 21.3476 16.26 21.3502H7.73998ZM11.84 17.0002C11.7405 17.0006 11.6421 16.9803 11.5509 16.9407C11.4597 16.9011 11.3777 16.8431 11.31 16.7702C11.1849 16.6337 11.1155 16.4553 11.1155 16.2702C11.1155 16.0851 11.1849 15.9067 11.31 15.7702L12.89 14.1802L11.45 14.1002C9.53674 14.0949 7.70337 13.3326 6.3505 11.9797C4.99763 10.6268 4.23526 8.79346 4.22998 6.88021V3.46021C4.22998 3.26395 4.30794 3.07573 4.44672 2.93696C4.5855 2.79818 4.77372 2.72021 4.96998 2.72021C5.16624 2.72021 5.35446 2.79818 5.49324 2.93696C5.63202 3.07573 5.70998 3.26395 5.70998 3.46021V6.88021C5.71786 8.40013 6.32514 9.85554 7.3999 10.9303C8.47465 12.0051 9.93007 12.6123 11.45 12.6202H12.86L11.31 10.9402C11.2424 10.8717 11.1891 10.7904 11.1531 10.7012C11.117 10.6119 11.099 10.5165 11.1 10.4202C11.0985 10.3221 11.1183 10.2248 11.158 10.135C11.1977 10.0453 11.2564 9.96516 11.33 9.90021C11.396 9.83202 11.4753 9.77817 11.5631 9.74204C11.6508 9.70591 11.7451 9.68826 11.84 9.69021C11.9349 9.68826 12.0291 9.70591 12.1169 9.74204C12.2046 9.77817 12.284 9.83202 12.35 9.90021L15.29 12.8302C15.3262 12.8651 15.3566 12.9057 15.38 12.9502L15.45 13.0702V13.2102C15.4699 13.3059 15.4699 13.4046 15.45 13.5002C15.4396 13.5739 15.4159 13.6451 15.38 13.7102C15.3482 13.7748 15.304 13.8326 15.25 13.8802L12.31 16.8202C12.1792 16.9333 12.0129 16.997 11.84 17.0002Z" fill="#E74159"/>
</svg>
