<svg width="24" height="24" viewBox="0 0 24 24" fill="none" xmlns="http://www.w3.org/2000/svg">
<path d="M19.66 2.66994C20.0055 2.66876 20.3479 2.73622 20.6672 2.8684C20.9865 3.00058 21.2763 3.19485 21.52 3.43994C22.0113 3.93452 22.2879 4.60279 22.29 5.29994V12.9999C22.29 13.6975 22.0129 14.3664 21.5197 14.8596C21.0264 15.3528 20.3575 15.6299 19.66 15.6299H16.78C16.589 15.6299 16.4059 15.5541 16.2708 15.4191C16.1358 15.284 16.06 15.1009 16.06 14.9099C16.06 14.719 16.1358 14.5358 16.2708 14.4008C16.4059 14.2658 16.589 14.1899 16.78 14.1899H19.66C19.9748 14.1873 20.2759 14.0611 20.4985 13.8385C20.7211 13.6159 20.8473 13.3147 20.85 12.9999V5.29994C20.85 4.9834 20.7249 4.67968 20.502 4.45492C20.2791 4.23017 19.9765 4.10257 19.66 4.09994H4.33996C4.02344 4.10257 3.72078 4.23017 3.49789 4.45492C3.275 4.67968 3.14995 4.9834 3.14996 5.29994V12.9999C3.15257 13.3147 3.27879 13.6159 3.50139 13.8385C3.724 14.0611 4.02516 14.1873 4.33996 14.1899H7.20996C7.40092 14.1899 7.58405 14.2658 7.71908 14.4008C7.8541 14.5358 7.92996 14.719 7.92996 14.9099C7.92996 15.1009 7.8541 15.284 7.71908 15.4191C7.58405 15.5541 7.40092 15.6299 7.20996 15.6299H4.33996C3.64244 15.6299 2.97349 15.3528 2.48027 14.8596C1.98705 14.3664 1.70996 13.6975 1.70996 12.9999V5.29994C1.71198 4.60279 1.98863 3.93452 2.47996 3.43994C2.72358 3.19485 3.01344 3.00058 3.33274 2.8684C3.65203 2.73622 3.99439 2.66876 4.33996 2.66994H19.66ZM12 6.49994C12.1694 6.48026 12.3405 6.48026 12.51 6.49994C13.0213 6.60102 13.491 6.85176 13.8596 7.22031C14.2281 7.58887 14.4789 8.05862 14.58 8.56994C14.6808 9.08032 14.6286 9.60912 14.43 10.0899C14.2641 10.4894 14.0024 10.8417 13.6678 11.1159C13.3333 11.39 12.9364 11.5773 12.5121 11.6614C12.0879 11.7455 11.6495 11.7236 11.2357 11.5978C10.8219 11.4719 10.4456 11.246 10.14 10.9399C9.64863 10.4454 9.37197 9.77708 9.36996 9.07994C9.37895 8.56725 9.53818 8.06847 9.82792 7.64541C10.1177 7.22235 10.5252 6.89361 11 6.69994C11.316 6.56527 11.6564 6.49719 12 6.49994ZM12 10.3199C12.0763 10.3302 12.1536 10.3302 12.23 10.3199C12.4662 10.2779 12.6832 10.1624 12.85 9.98994C13.0154 9.82332 13.1269 9.61077 13.17 9.37994C13.2216 9.14841 13.1971 8.90637 13.1 8.68994C13.0089 8.471 12.856 8.28335 12.66 8.14994C12.4651 8.01847 12.2351 7.94878 12 7.94994C11.6817 7.94994 11.3765 8.07636 11.1514 8.30141C10.9264 8.52645 10.8 8.83168 10.8 9.14994C10.7971 9.38681 10.8707 9.61829 11.01 9.80994C11.137 10.0077 11.3221 10.1614 11.54 10.2499C11.6874 10.3026 11.8436 10.3263 12 10.3199ZM17.74 8.40994C17.8581 8.41224 17.974 8.44242 18.0783 8.49803C18.1826 8.55364 18.2722 8.6331 18.34 8.72994C18.4186 8.84849 18.4604 8.98768 18.46 9.12994C18.46 9.32089 18.3841 9.50403 18.2491 9.63905C18.114 9.77408 17.9309 9.84994 17.74 9.84994C17.5977 9.85033 17.4585 9.80858 17.34 9.72994C17.2216 9.64915 17.1308 9.53396 17.08 9.39994C17.0104 9.2789 16.9823 9.13843 17 8.99994C17.0218 8.85935 17.0884 8.72957 17.19 8.62994C17.2917 8.52935 17.4201 8.45995 17.56 8.42994L17.74 8.40994ZM6.25996 8.40994C6.40222 8.40954 6.54141 8.4513 6.65996 8.52994C6.7774 8.60992 6.86856 8.72286 6.92194 8.85454C6.97533 8.98622 6.98855 9.13075 6.95996 9.26994C6.93385 9.40909 6.86783 9.53764 6.76996 9.63994C6.66639 9.73601 6.53839 9.80174 6.39996 9.82994H6.25996C6.14181 9.82764 6.02588 9.79745 5.92161 9.74184C5.81734 9.68623 5.72769 9.60677 5.65996 9.50994C5.58132 9.39139 5.53957 9.2522 5.53996 9.10994C5.53917 9.01522 5.55735 8.9213 5.59341 8.83371C5.62948 8.74613 5.68271 8.66664 5.74996 8.59994C5.89017 8.47498 6.07217 8.40718 6.25996 8.40994ZM12 14.1499C12.0932 14.1506 12.1852 14.1711 12.27 14.2099C12.3593 14.2431 12.441 14.2941 12.51 14.3599L14.7 16.5099C14.8388 16.6517 14.9177 16.8415 14.92 17.0399C14.9198 17.1882 14.8758 17.3331 14.7934 17.4563C14.7109 17.5795 14.5938 17.6755 14.4569 17.7322C14.3199 17.7889 14.1692 17.8038 14.0238 17.7749C13.8784 17.746 13.7448 17.6747 13.64 17.5699L12.72 16.5699V20.6199C12.7183 20.8106 12.6431 20.9933 12.51 21.1299C12.3757 21.2595 12.1965 21.3319 12.01 21.3319C11.8234 21.3319 11.6442 21.2595 11.51 21.1299C11.3769 20.9933 11.3016 20.8106 11.3 20.6199V16.5599L10.37 17.5599C10.2297 17.6937 10.0437 17.7688 9.84996 17.7699C9.74809 17.7727 9.64673 17.7547 9.55207 17.7169C9.4574 17.6792 9.37141 17.6226 9.29936 17.5505C9.2273 17.4785 9.17068 17.3925 9.13296 17.2978C9.09524 17.2032 9.07721 17.1018 9.07996 16.9999C9.08226 16.8015 9.16108 16.6117 9.29996 16.4699L11.49 14.3199C11.5569 14.2564 11.6348 14.2056 11.72 14.1699C11.8112 14.1455 11.9062 14.1387 12 14.1499Z" fill="#E74159"/>
</svg>
