<svg width="24" height="24" viewBox="0 0 24 24" fill="none" xmlns="http://www.w3.org/2000/svg">
<path d="M11.9999 20.6202C10.0001 20.6245 8.0608 19.9351 6.51257 18.6694C4.96434 17.4037 3.90309 15.6401 3.5098 13.6794C3.11651 11.7187 3.41553 9.6823 4.35587 7.91742C5.2962 6.15255 6.81963 4.76851 8.66636 4.00131C10.5131 3.23411 12.5688 3.13127 14.4829 3.71032C16.3969 4.28936 18.0509 5.51444 19.1627 7.17665C20.2745 8.83886 20.7753 10.8353 20.5796 12.8254C20.384 14.8156 19.5041 16.6763 18.0899 18.0902C17.2918 18.8927 16.3429 19.5294 15.2977 19.9636C14.2525 20.3978 13.1317 20.621 11.9999 20.6202ZM11.9999 21.8502C14.2831 21.8359 16.4908 21.0304 18.2468 19.571C20.0028 18.1115 21.1985 16.0884 21.6301 13.8463C22.0618 11.6042 21.7028 9.28173 20.6141 7.27464C19.5255 5.26755 17.7747 3.69998 15.66 2.83898C13.5452 1.97797 11.1974 1.87681 9.01642 2.55271C6.83545 3.22861 4.95628 4.63977 3.69906 6.54578C2.44184 8.45178 1.88434 10.7347 2.12153 13.0057C2.35873 15.2766 3.37594 17.3951 4.99989 19.0002C5.92059 19.914 7.01324 20.6364 8.21472 21.1256C9.4162 21.6147 10.7027 21.861 11.9999 21.8502Z" fill="#E74159"/>
<path d="M11.3799 15.75C11.2943 15.7479 11.2097 15.731 11.1299 15.7C11.0452 15.6691 10.9696 15.6176 10.9099 15.55L7.6499 12.29C7.53465 12.1645 7.4707 12.0004 7.4707 11.83C7.4707 11.6596 7.53465 11.4955 7.6499 11.37C7.71068 11.3067 7.78366 11.2563 7.86444 11.2219C7.94521 11.1875 8.03212 11.1699 8.1199 11.17C8.29401 11.1666 8.46258 11.2312 8.5899 11.35L11.3599 14.12L15.8099 8.45C15.934 8.32389 16.103 8.25199 16.2799 8.25C16.4581 8.25086 16.6294 8.31868 16.7599 8.44C16.8233 8.50078 16.8736 8.57375 16.908 8.65453C16.9424 8.73531 16.96 8.82221 16.9599 8.91C16.9621 8.99867 16.9464 9.08688 16.9138 9.16935C16.8811 9.25182 16.8322 9.32686 16.7699 9.39L11.8499 15.55C11.7873 15.6069 11.7165 15.654 11.6399 15.69C11.5591 15.7299 11.4701 15.7505 11.3799 15.75Z" fill="#E74159"/>
</svg>
