<svg width="24" height="24" viewBox="0 0 24 24" fill="none" xmlns="http://www.w3.org/2000/svg">
<path d="M11.9999 2.67H11.9399C11.7861 2.68276 11.6431 2.75431 11.5407 2.86978C11.4382 2.98525 11.3842 3.13575 11.3899 3.29V4.55C11.3886 4.63143 11.4033 4.71231 11.4333 4.78804C11.4632 4.86377 11.5078 4.93286 11.5644 4.99136C11.6211 5.04987 11.6887 5.09664 11.7634 5.129C11.8381 5.16137 11.9185 5.1787 11.9999 5.18C12.1653 5.18002 12.324 5.11502 12.4419 4.99903C12.5598 4.88304 12.6273 4.72535 12.6299 4.56V3.3C12.6313 3.2169 12.6159 3.13437 12.5847 3.05732C12.5535 2.98028 12.5072 2.91029 12.4484 2.85152C12.3896 2.79274 12.3196 2.74639 12.2426 2.71521C12.1655 2.68402 12.083 2.66865 11.9999 2.67ZM6.33991 4.54C6.17622 4.5577 6.02597 4.63877 5.92131 4.76586C5.81664 4.89295 5.76589 5.05596 5.77991 5.22C5.79198 5.34654 5.84459 5.46579 5.92991 5.56L7.78991 7.84C7.88804 7.97261 8.03483 8.06081 8.19799 8.08519C8.36114 8.10957 8.5273 8.06813 8.65991 7.97C8.79252 7.87187 8.88071 7.72508 8.90509 7.56193C8.92947 7.39877 8.88804 7.23261 8.78991 7.1L6.88991 4.77C6.82323 4.69057 6.73851 4.62824 6.64283 4.58823C6.54715 4.54822 6.44329 4.53168 6.33991 4.54ZM17.5799 4.54C17.4899 4.54368 17.4017 4.56603 17.3207 4.60562C17.2398 4.64521 17.168 4.70119 17.1099 4.77L15.2499 7.05C15.1948 7.11041 15.152 7.18109 15.1242 7.25801C15.0964 7.33493 15.0839 7.41657 15.0877 7.49829C15.0914 7.58 15.1111 7.66019 15.1458 7.73426C15.1806 7.80834 15.2295 7.87485 15.2899 7.93C15.3503 7.98516 15.421 8.02788 15.4979 8.05572C15.5748 8.08356 15.6565 8.09597 15.7382 8.09226C15.8199 8.08854 15.9001 8.06877 15.9742 8.03407C16.0482 7.99936 16.1148 7.95041 16.1699 7.89L18.0399 5.61C18.1018 5.54912 18.1502 5.47593 18.182 5.39516C18.2138 5.31438 18.2283 5.22783 18.2245 5.14111C18.2207 5.05438 18.1988 4.96942 18.1601 4.89171C18.1214 4.814 18.0668 4.74528 17.9999 4.69C17.8816 4.59278 17.7331 4.53976 17.5799 4.54ZM11.9999 7C11.902 7.0091 11.8077 7.04097 11.7243 7.09306C11.641 7.14515 11.571 7.21602 11.5199 7.3L9.99991 9.79L7.15991 10.36C6.9992 10.3938 6.85805 10.489 6.76652 10.6254C6.67499 10.7618 6.64033 10.9285 6.66991 11.09C6.69995 11.2088 6.75827 11.3186 6.83991 11.41L8.90991 13.47L8.52991 16.27C8.49968 16.4287 8.53161 16.593 8.61909 16.7289C8.70656 16.8648 8.8429 16.9618 8.99991 17C9.10454 17.0295 9.21528 17.0295 9.31991 17L11.9999 15.78L14.6499 16.92C14.7253 16.9529 14.8065 16.9704 14.8888 16.9716C14.9711 16.9727 15.0527 16.9575 15.129 16.9268C15.2054 16.8961 15.2748 16.8505 15.3333 16.7927C15.3918 16.7348 15.4383 16.6659 15.4699 16.59C15.4999 16.4854 15.4999 16.3746 15.4699 16.27L15.0999 13.47L17.1599 11.41C17.2747 11.2923 17.339 11.1344 17.339 10.97C17.339 10.8056 17.2747 10.6477 17.1599 10.53C17.0737 10.4412 16.9618 10.3817 16.8399 10.36L13.9999 9.79L12.5299 7.33C12.4787 7.23303 12.4026 7.1514 12.3095 7.09342C12.2164 7.03545 12.1095 7.00321 11.9999 7ZM11.9999 8.84L13.1199 10.67C13.1643 10.7432 13.2239 10.8061 13.2946 10.8544C13.3653 10.9027 13.4455 10.9353 13.5299 10.95L15.5299 11.35L13.9999 12.8C13.9341 12.8702 13.8847 12.9542 13.8553 13.0459C13.8259 13.1375 13.8172 13.2346 13.8299 13.33L14.0999 15.33L12.1999 14.52C12.1228 14.4855 12.0393 14.4677 11.9549 14.4677C11.8705 14.4677 11.787 14.4855 11.7099 14.52L9.81991 15.33L10.0899 13.33C10.1136 13.2404 10.1178 13.1467 10.1023 13.0553C10.0867 12.9639 10.0518 12.8768 9.99991 12.8L8.49991 11.35L10.4999 10.95C10.5843 10.9353 10.6645 10.9027 10.7352 10.8544C10.806 10.8061 10.8655 10.7432 10.9099 10.67L11.9999 8.84ZM3.48991 9.51H3.41991C3.25707 9.52524 3.10684 9.6042 3.00195 9.7297C2.89706 9.85519 2.84601 10.017 2.85991 10.18C2.87066 10.3216 2.93048 10.455 3.02906 10.5573C3.12763 10.6595 3.25879 10.7241 3.39991 10.74L4.64991 11C4.73014 11.0143 4.81241 11.0123 4.89187 10.9942C4.97133 10.9762 5.04637 10.9424 5.11255 10.8949C5.17873 10.8473 5.23472 10.787 5.2772 10.7175C5.31969 10.6479 5.34781 10.5706 5.35991 10.49C5.37423 10.4092 5.37237 10.3263 5.35442 10.2462C5.33647 10.1661 5.3028 10.0904 5.25536 10.0234C5.20792 9.95646 5.14765 9.89957 5.07805 9.85606C5.00845 9.81256 4.9309 9.78331 4.84991 9.77L3.60991 9.52L3.48991 9.51ZM20.4899 9.51H20.3599L19.1099 9.72C18.9402 9.75183 18.79 9.84978 18.6925 9.99231C18.595 10.1348 18.5581 10.3103 18.5899 10.48C18.6217 10.6497 18.7197 10.7999 18.8622 10.8974C19.0047 10.9949 19.1802 11.0318 19.3499 11L20.5899 10.79C20.6715 10.7813 20.7506 10.7565 20.8226 10.717C20.8945 10.6775 20.9579 10.6241 21.0091 10.5599C21.0603 10.4958 21.0982 10.422 21.1206 10.3431C21.1431 10.2641 21.1496 10.1815 21.1399 10.1C21.1299 9.94166 21.0604 9.79294 20.9455 9.68356C20.8305 9.57418 20.6786 9.5122 20.5199 9.51H20.4899ZM6.77991 13.65C6.70257 13.6581 6.6277 13.6819 6.55991 13.72L3.86991 15C3.72662 15.0645 3.61317 15.181 3.55249 15.326C3.49182 15.4709 3.48845 15.6335 3.54307 15.7809C3.59769 15.9282 3.70622 16.0493 3.84672 16.1197C3.98721 16.1901 4.1492 16.2045 4.29991 16.16H4.38991L7.07991 14.91C7.16828 14.8806 7.24875 14.8315 7.31516 14.7662C7.38157 14.7009 7.43216 14.6213 7.46305 14.5335C7.49394 14.4456 7.50431 14.3519 7.49337 14.2594C7.48242 14.1669 7.45045 14.0782 7.39991 14C7.35239 13.8899 7.27446 13.7957 7.17527 13.7284C7.07607 13.6611 6.95974 13.6235 6.83991 13.62L6.77991 13.65ZM17.1399 13.65C17.058 13.6538 16.9776 13.674 16.9037 13.7095C16.8298 13.745 16.7637 13.7951 16.7096 13.8567C16.6554 13.9183 16.6143 13.9902 16.5886 14.0681C16.5628 14.146 16.5531 14.2283 16.5599 14.31C16.5644 14.4219 16.6006 14.5302 16.6643 14.6223C16.7281 14.7144 16.8167 14.7864 16.9199 14.83L19.6099 16.08C19.7545 16.1582 19.9241 16.1757 20.0817 16.1289C20.2392 16.082 20.3716 15.9745 20.4499 15.83C20.4904 15.7593 20.5162 15.6813 20.5261 15.6005C20.5359 15.5197 20.5294 15.4377 20.507 15.3594C20.4847 15.2811 20.4469 15.2081 20.3958 15.1447C20.3448 15.0812 20.2816 15.0286 20.2099 14.99H20.1299L17.4299 13.75C17.3452 13.6901 17.2437 13.6585 17.1399 13.66V13.65ZM11.9999 17.17H11.9399C11.7862 17.1874 11.6445 17.2617 11.5427 17.3783C11.4409 17.4949 11.3864 17.6453 11.3899 17.8V20.7C11.3886 20.7814 11.4033 20.8623 11.4333 20.938C11.4632 21.0138 11.5078 21.0829 11.5644 21.1414C11.6211 21.1999 11.6887 21.2466 11.7634 21.279C11.8381 21.3114 11.9185 21.3287 11.9999 21.33C12.0813 21.3313 12.1622 21.3166 12.2379 21.2867C12.3137 21.2567 12.3828 21.2122 12.4413 21.1555C12.4998 21.0989 12.5465 21.0312 12.5789 20.9565C12.6113 20.8818 12.6286 20.8014 12.6299 20.72V17.8C12.6312 17.7186 12.6165 17.6377 12.5866 17.562C12.5566 17.4862 12.5121 17.4171 12.4554 17.3586C12.3988 17.3001 12.3312 17.2534 12.2564 17.221C12.1817 17.1886 12.1013 17.1713 12.0199 17.17H11.9999ZM7.82991 17.59C7.72846 17.5951 7.63005 17.6263 7.5442 17.6807C7.45836 17.735 7.38799 17.8105 7.33991 17.9L6.70991 18.9C6.61383 19.0333 6.57364 19.1989 6.59793 19.3614C6.62222 19.524 6.70905 19.6706 6.83991 19.77C6.90496 19.8202 6.97947 19.8567 7.05898 19.8774C7.13849 19.898 7.22135 19.9024 7.3026 19.8903C7.38384 19.8781 7.4618 19.8497 7.53179 19.8067C7.60178 19.7637 7.66237 19.707 7.70991 19.64C7.73877 19.6109 7.76244 19.5771 7.77991 19.54L8.39991 18.54C8.48454 18.3994 8.50996 18.2309 8.4706 18.0716C8.43123 17.9123 8.33029 17.775 8.18991 17.69C8.08182 17.615 7.95109 17.5796 7.81991 17.59H7.82991ZM16.1099 17.59C16.0284 17.5951 15.9488 17.6162 15.8755 17.6522C15.8022 17.6881 15.7367 17.7382 15.6828 17.7995C15.6289 17.8609 15.5877 17.9322 15.5614 18.0095C15.5352 18.0868 15.5245 18.1685 15.5299 18.25C15.5385 18.3489 15.5692 18.4446 15.6199 18.53L16.2399 19.53C16.2727 19.6067 16.3206 19.6761 16.3807 19.7339C16.4409 19.7917 16.5122 19.8367 16.5902 19.8663C16.6682 19.8959 16.7514 19.9095 16.8347 19.9062C16.9181 19.9029 16.9999 19.8828 17.0754 19.8471C17.1508 19.8114 17.2182 19.7609 17.2736 19.6985C17.3291 19.6361 17.3713 19.5632 17.3979 19.4841C17.4245 19.405 17.4348 19.3214 17.4283 19.2382C17.4217 19.155 17.3985 19.074 17.3599 19L17.2899 18.89L16.6699 17.89C16.6099 17.7941 16.5255 17.7158 16.4254 17.6631C16.3253 17.6104 16.213 17.5852 16.0999 17.59H16.1099Z" fill="#E74159"/>
</svg>
