<svg width="24" height="24" viewBox="0 0 24 24" fill="none" xmlns="http://www.w3.org/2000/svg">
<path d="M4.33996 21.3301C3.99439 21.3313 3.65203 21.2639 3.33274 21.1317C3.01344 20.9995 2.72358 20.8052 2.47996 20.5601C1.98863 20.0656 1.71198 19.3973 1.70996 18.7001V11.0001C1.72047 10.3096 2.00218 9.65087 2.49427 9.16626C2.98636 8.68166 3.64932 8.41007 4.33996 8.41015H7.21996C7.41092 8.41015 7.59405 8.48601 7.72908 8.62103C7.8641 8.75606 7.93996 8.93919 7.93996 9.13015C7.93996 9.32111 7.8641 9.50424 7.72908 9.63927C7.59405 9.77429 7.41092 9.85015 7.21996 9.85015H4.33996C4.03191 9.85245 3.73654 9.97313 3.51502 10.1872C3.2935 10.4013 3.16279 10.6924 3.14996 11.0001V18.7001C3.14995 19.0167 3.275 19.3204 3.49789 19.5452C3.72078 19.7699 4.02344 19.8975 4.33996 19.9001H19.66C19.9765 19.8975 20.2791 19.7699 20.502 19.5452C20.7249 19.3204 20.85 19.0167 20.85 18.7001V11.0001C20.8473 10.6853 20.7211 10.3842 20.4985 10.1616C20.2759 9.93898 19.9748 9.81276 19.66 9.81015H16.78C16.589 9.81015 16.4059 9.73429 16.2708 9.59927C16.1358 9.46424 16.06 9.28111 16.06 9.09015C16.06 8.89919 16.1358 8.71606 16.2708 8.58103C16.4059 8.44601 16.589 8.37015 16.78 8.37015H19.66C20.3575 8.37015 21.0264 8.64724 21.5197 9.14046C22.0129 9.63368 22.29 10.3026 22.29 11.0001V18.7001C22.2879 19.3973 22.0113 20.0656 21.52 20.5601C21.2763 20.8052 20.9865 20.9995 20.6672 21.1317C20.3479 21.2639 20.0055 21.3313 19.66 21.3301H4.33996ZM12 17.5001C11.8286 17.5033 11.6574 17.4865 11.49 17.4501C10.9786 17.3491 10.5089 17.0983 10.1403 16.7298C9.77178 16.3612 9.52105 15.8915 9.41996 15.3801C9.3191 14.8698 9.37128 14.341 9.56996 13.8601C9.73473 13.46 9.99572 13.1066 10.3298 12.8315C10.6638 12.5563 11.0606 12.3678 11.4849 12.2828C11.9093 12.1977 12.3481 12.2187 12.7624 12.3438C13.1767 12.4689 13.5537 12.6944 13.86 13.0001C14.3513 13.4947 14.6279 14.163 14.63 14.8601C14.6328 15.3831 14.4791 15.8949 14.1886 16.3298C13.8981 16.7646 13.4841 17.1026 13 17.3001C12.6839 17.4348 12.3435 17.5029 12 17.5001ZM12 13.6801C11.9236 13.6699 11.8463 13.6699 11.77 13.6801C11.5337 13.7222 11.3167 13.8376 11.15 14.0101C10.9845 14.1768 10.873 14.3893 10.83 14.6201C10.7783 14.8517 10.8028 15.0937 10.9 15.3102C10.991 15.5291 11.1439 15.7167 11.34 15.8501C11.5349 15.9816 11.7649 16.0513 12 16.0501C12.3182 16.0501 12.6234 15.9237 12.8485 15.6987C13.0735 15.4736 13.2 15.1684 13.2 14.8501C13.2029 14.6133 13.1292 14.3818 12.99 14.1901C12.8629 13.9923 12.6778 13.8387 12.46 13.7501C12.3125 13.6975 12.1564 13.6738 12 13.6801ZM6.25996 15.5901C6.14181 15.5878 6.02588 15.5577 5.92161 15.5021C5.81734 15.4464 5.72769 15.367 5.65996 15.2701C5.58132 15.1516 5.53957 15.0124 5.53996 14.8701C5.53996 14.6792 5.61582 14.4961 5.75084 14.361C5.88587 14.226 6.06901 14.1501 6.25996 14.1501C6.40222 14.1498 6.54141 14.1915 6.65996 14.2701C6.77837 14.3509 6.86913 14.4661 6.91996 14.6001C6.98954 14.7212 7.01764 14.8617 6.99996 15.0001C6.97385 15.1393 6.90783 15.2678 6.80996 15.3701C6.70697 15.469 6.5791 15.5381 6.43996 15.5701L6.25996 15.5901ZM17.74 15.5901C17.5977 15.5905 17.4585 15.5488 17.34 15.4701C17.2225 15.3902 17.1314 15.2772 17.078 15.1455C17.0246 15.0139 17.0114 14.8693 17.04 14.7301C17.0661 14.591 17.1321 14.4624 17.23 14.3601C17.3335 14.2641 17.4615 14.1983 17.6 14.1701H17.74C17.8581 14.1724 17.974 14.2026 18.0783 14.2582C18.1826 14.3139 18.2722 14.3933 18.34 14.4901C18.4186 14.6087 18.4604 14.7479 18.46 14.8902C18.46 15.0811 18.3841 15.2642 18.2491 15.3993C18.114 15.5343 17.9309 15.6101 17.74 15.6101V15.5901ZM12 9.85015C11.9067 9.84944 11.8147 9.82899 11.73 9.79015C11.6406 9.75701 11.5589 9.70597 11.49 9.64015L9.29996 7.49015C9.17019 7.35852 9.0921 7.18459 9.07996 7.00015C9.08009 6.85191 9.12415 6.70703 9.20657 6.58382C9.28899 6.4606 9.40607 6.36457 9.54304 6.30786C9.68 6.25115 9.8307 6.2363 9.9761 6.26518C10.1215 6.29407 10.2551 6.36539 10.36 6.47015L11.28 7.47015V3.39015C11.2816 3.19944 11.3569 3.01674 11.49 2.88015C11.6242 2.75061 11.8034 2.67822 11.99 2.67822C12.1765 2.67822 12.3557 2.75061 12.49 2.88015C12.6231 3.01674 12.6983 3.19944 12.7 3.39015V7.44015L13.63 6.44015C13.769 6.30464 13.9558 6.22921 14.15 6.23015C14.3489 6.23015 14.5396 6.30917 14.6803 6.44982C14.8209 6.59047 14.9 6.78124 14.9 6.98015C14.8977 7.17856 14.8188 7.36843 14.68 7.51015L12.51 9.64015C12.443 9.7037 12.3651 9.75453 12.28 9.79015C12.1914 9.82819 12.0963 9.84857 12 9.85015Z" fill="#E74159"/>
</svg>
