<svg width="24" height="24" viewBox="0 0 24 24" fill="none" xmlns="http://www.w3.org/2000/svg">
<path d="M7.73998 21.3502C6.81069 21.345 5.92096 20.9735 5.26384 20.3164C4.60672 19.6592 4.23523 18.7695 4.22998 17.8402V11.7802C4.25118 11.5975 4.33879 11.429 4.47615 11.3066C4.61351 11.1843 4.79104 11.1167 4.97498 11.1167C5.15892 11.1167 5.33645 11.1843 5.47381 11.3066C5.61117 11.429 5.69878 11.5975 5.71998 11.7802V17.8402C5.71998 18.3707 5.93069 18.8794 6.30577 19.2544C6.68084 19.6295 7.18955 19.8402 7.71998 19.8402H16.24C16.7704 19.8402 17.2791 19.6295 17.6542 19.2544C18.0293 18.8794 18.24 18.3707 18.24 17.8402V6.23022C18.24 5.69979 18.0293 5.19108 17.6542 4.816C17.2791 4.44093 16.7704 4.23022 16.24 4.23022H11.67C11.4737 4.23022 11.2855 4.15225 11.1467 4.01348C11.0079 3.8747 10.93 3.68648 10.93 3.49022C10.93 3.29396 11.0079 3.10574 11.1467 2.96696C11.2855 2.82818 11.4737 2.75022 11.67 2.75022H16.26C17.1884 2.75284 18.0781 3.12212 18.7355 3.77764C19.3929 4.43317 19.7647 5.32186 19.77 6.25022V17.8402C19.7647 18.7695 19.3932 19.6592 18.7361 20.3164C18.079 20.9735 17.1893 21.345 16.26 21.3502H7.73998ZM14.74 17.0402C14.6428 17.0402 14.5466 17.0211 14.4568 16.9839C14.367 16.9467 14.2854 16.8922 14.2167 16.8235C14.148 16.7548 14.0935 16.6732 14.0563 16.5834C14.0191 16.4936 14 16.3974 14 16.3002V12.8802C13.9948 11.3673 13.3935 9.91742 12.3265 8.84482C11.2596 7.77223 9.81284 7.16337 8.29998 7.15022H6.87998L8.43998 8.82022C8.54276 8.92428 8.6124 9.05647 8.6401 9.20009C8.6678 9.34371 8.65231 9.49232 8.5956 9.62715C8.53889 9.76197 8.4435 9.87697 8.32147 9.95761C8.19944 10.0382 8.05625 10.0809 7.90998 10.0802C7.81304 10.0799 7.71713 10.0603 7.62785 10.0225C7.53857 9.98476 7.45771 9.92958 7.38998 9.86022L4.44998 6.93022C4.41761 6.89206 4.38755 6.85198 4.35998 6.81022C4.31885 6.75278 4.28836 6.68843 4.26998 6.62022C4.24153 6.5019 4.24153 6.37853 4.26998 6.26022V6.12022V6.02022L4.37998 5.88022L7.38998 2.94022C7.5305 2.79953 7.72114 2.72039 7.91998 2.72022C8.1122 2.71964 8.29769 2.79098 8.43998 2.92022C8.57916 3.05766 8.65826 3.24462 8.65998 3.44022C8.66851 3.54328 8.65411 3.64695 8.6178 3.74378C8.58149 3.8406 8.52418 3.92818 8.44998 4.00022L6.84998 5.58022L8.29998 5.66022C10.2115 5.66813 12.0423 6.43167 13.393 7.78425C14.7437 9.13684 15.5047 10.9687 15.51 12.8802V16.3002C15.4997 16.4895 15.4173 16.6676 15.2796 16.7978C15.1419 16.928 14.9595 17.0005 14.77 17.0002L14.74 17.0402Z" fill="#E74159"/>
</svg>
