<svg width="24" height="24" viewBox="0 0 24 24" fill="none" xmlns="http://www.w3.org/2000/svg">
<path d="M15.22 1.72007C15.2866 1.6489 15.3687 1.59413 15.46 1.56007C15.5515 1.52045 15.6502 1.5 15.75 1.5C15.8498 1.5 15.9485 1.52045 16.04 1.56007C16.1313 1.59413 16.2135 1.6489 16.28 1.72007L20.78 6.22007C20.8512 6.28662 20.9059 6.36878 20.94 6.46007C20.9796 6.55162 21.0001 6.65032 21.0001 6.75007C21.0001 6.84983 20.9796 6.94853 20.94 7.04007C20.9059 7.13137 20.8512 7.21353 20.78 7.28008L16.28 11.7801C16.2135 11.8512 16.1313 11.906 16.04 11.9401C15.9485 11.9797 15.8498 12.0001 15.75 12.0001C15.6502 12.0001 15.5515 11.9797 15.46 11.9401C15.279 11.865 15.1351 11.7211 15.06 11.5401C15.0204 11.4485 14.9999 11.3498 14.9999 11.2501C14.9999 11.1503 15.0204 11.0516 15.06 10.9601C15.0941 10.8688 15.1488 10.7866 15.22 10.7201L18.44 7.50007H3.75C3.55109 7.50007 3.36032 7.42106 3.21967 7.28041C3.07902 7.13975 3 6.94899 3 6.75007C3 6.55116 3.07902 6.3604 3.21967 6.21974C3.36032 6.07909 3.55109 6.00007 3.75 6.00007H18.44L15.22 2.78007C15.1488 2.71352 15.0941 2.63137 15.06 2.54007C15.0204 2.44853 14.9999 2.34983 14.9999 2.25007C14.9999 2.15032 15.0204 2.05162 15.06 1.96007C15.0941 1.86878 15.1488 1.78662 15.22 1.72007Z" fill="#E74159"/>
<path d="M8.78007 12.2201C8.85125 12.2866 8.90602 12.3688 8.94007 12.4601C8.9797 12.5516 9.00015 12.6503 9.00015 12.7501C9.00015 12.8498 8.9797 12.9485 8.94007 13.0401C8.90602 13.1314 8.85125 13.2135 8.78007 13.2801L5.56007 16.5001H20.2501C20.449 16.5001 20.6398 16.5791 20.7804 16.7197C20.9211 16.8604 21.0001 17.0512 21.0001 17.2501C21.0001 17.449 20.9211 17.6398 20.7804 17.7804C20.6398 17.9211 20.449 18.0001 20.2501 18.0001H5.56007L8.78007 21.2201C8.85376 21.2887 8.91286 21.3715 8.95386 21.4635C8.99485 21.5555 9.01689 21.6548 9.01867 21.7556C9.02044 21.8563 9.00192 21.9563 8.9642 22.0497C8.92648 22.1431 8.87033 22.2279 8.79911 22.2991C8.72789 22.3703 8.64306 22.4265 8.54967 22.4642C8.45628 22.5019 8.35626 22.5204 8.25555 22.5187C8.15485 22.5169 8.05554 22.4948 7.96354 22.4539C7.87154 22.4129 7.78874 22.3538 7.72007 22.2801L3.22007 17.7801C3.1489 17.7135 3.09413 17.6314 3.06007 17.5401C3.02045 17.4485 3 17.3498 3 17.2501C3 17.1503 3.02045 17.0516 3.06007 16.9601C3.09413 16.8688 3.1489 16.7866 3.22007 16.7201L7.72007 12.2201C7.79795 12.1434 7.89444 12.0882 8.00007 12.0601C8.09162 12.0204 8.19032 12 8.29007 12C8.38983 12 8.48853 12.0204 8.58007 12.0601C8.65699 12.0992 8.72507 12.1536 8.78007 12.2201Z" fill="#E74159"/>
</svg>
