<svg id="Capa_1" enable-background="new 0 0 497 497" height="512" viewBox="0 0 497 497" width="512"
    xmlns="http://www.w3.org/2000/svg">
    <g>
        <path
            d="m497 248.5c0 88.424-46.184 166.061-115.746 210.106-38.405 24.317-81.769 26.256-130.588 26.256-137.243 0-236.741-99.119-236.741-236.362 0-83.732 27.487-157.792 90.948-202.815 40.557-28.772 90.117-45.685 143.627-45.685 137.243 0 248.5 111.257 248.5 248.5z"
            fill="#ffd764" />
        <path
            d="m486.582 190.729h-111.635l-11.911 4.691c-1.727 0-3.258 1.107-3.806 2.745-4.035 12.056-5.454 20.072-2.357 33.42 7.434 32.047 32.307 54.789 63.92 55.72 5.598.165 11.294-.336 16.988-1.565 38.287-8.263 62.78-45.898 54.758-84.298-.569-2.725-1.29-5.379-2.147-7.958-.547-1.642-2.079-2.755-3.81-2.755z"
            fill="#fcf7ed" />
        <path
            d="m307.016 190.729h-127.703c-1.727 0-3.258 1.107-3.806 2.745-4.035 12.056-4.914 25.351-1.817 38.7 8.75 37.722 46.673 61.735 84.524 53.566 38.287-8.263 62.78-45.898 54.758-84.298-.569-2.725-1.29-5.379-2.147-7.958-.546-1.642-2.078-2.755-3.809-2.755z"
            fill="#fcf7ed" />
        <path
            d="m432.85 286.62c-36.16 5.18-71.22-18.36-79.59-54.45-3.1-13.34-2.22-26.64 1.81-38.7.55-1.63 2.08-2.74 3.81-2.74h20c-1.73 0-3.26 1.11-3.81 2.74-4.03 12.06-4.91 25.36-1.81 38.7 6.81 29.34 31.25 50.39 59.59 54.45z"
            fill="#f7e5c1" />
        <path
            d="m253.28 286.62c-36.16 5.18-71.22-18.36-79.59-54.45-3.1-13.34-2.22-26.64 1.82-38.7.54-1.63 2.08-2.74 3.8-2.74h20c-1.72 0-3.26 1.11-3.8 2.74-4.04 12.06-4.92 25.36-1.82 38.7 6.81 29.34 31.25 50.39 59.59 54.45z"
            fill="#f7e5c1" />
        <path
            d="m480.734 124.834c-6.806 4.747-15.515-1.859-20.256-8.654-8.451-12.115-21.567-17.788-36.02-14.739l-41.631 8.782c-.704.143-1.532.274-2.264.34-8.014.728-17.725 1.226-21.334-5.424-1.229-2.266-2.028-4.813-2.276-7.543-.976-10.744 6.942-20.245 17.685-21.222 0 0 36.671-3.558 61.942-5.888 14.39-1.327 28.375 5.216 36.584 17.108l11.289 16.354c4.741 6.797 3.076 16.146-3.719 20.886z"
            fill="#b36d3c" />
        <path
            d="m480.61 124.91c-6.79 4.65-16.05 2.96-20.76-3.8-6.97-9.99-18.31-15.74-30.18-15.74-2.52 0-5.07.26-7.6.79l-41.63 8.78c-.7.14-1.53.28-2.26.34-8.02.73-15.34-3.49-18.95-10.14l59.95-12.68c3.45-.73 6.98-1.09 10.49-1.09 16.59 0 32.17 8.12 41.66 21.73.25.36 7.99 10.13 9.28 11.81z"
            fill="#995e34" />
        <path
            d="m466.151 215.153c1.29 6.176.626 12.305-1.571 17.746-3.707 9.18-11.299 13.424-21.718 15.6-16.594 3.467-29.214-3.895-32.681-20.489-2.885-13.808-.123-27.69 11.831-33.857 2.412-1.244 5.03-2.187 7.816-2.769 16.594-3.466 32.856 7.175 36.323 23.769z"
            fill="#8c818f" />
        <path
            d="m286.584 215.153c1.29 6.176.626 12.306-1.572 17.748-3.708 9.179-12.243 11.316-22.661 13.493-16.594 3.467-26.491-2.81-29.957-19.404-3.033-14.52-1.166-28.068 11.94-33.73 1.872-.809 3.854-1.442 5.928-1.875 16.593-3.467 32.856 7.174 36.322 23.768z"
            fill="#8c818f" />
        <path
            d="m464.58 232.9c-3.7 9.18-11.78 16.4-22.2 18.58-16.59 3.46-32.85-7.18-36.32-23.77-3.09-14.79 5.02-29.31 18.56-34.75-2.19 5.44-2.85 11.57-1.56 17.75 3.47 16.59 19.73 27.23 36.32 23.77 1.81-.38 3.54-.91 5.2-1.58z"
            fill="#766d78" />
        <path
            d="m285.01 232.9c-3.7 9.18-11.78 16.4-22.2 18.58-16.59 3.46-32.85-7.18-36.32-23.77-3.08-14.8 5.03-29.32 18.58-34.76-2.2 5.44-2.87 11.58-1.58 17.76 3.47 16.59 19.73 27.23 36.32 23.77 1.81-.38 3.54-.91 5.2-1.58z"
            fill="#766d78" />
        <path
            d="m310.646 108.178c-6.473-5.192-15.902-4.148-21.087 2.313-9.244 11.521-24.48 16.399-38.696 12.389l-40.949-11.551c-.692-.19-1.51-.376-2.236-.491-10.654-1.694-20.665 5.57-22.359 16.224-.311 1.953-.32 3.885-.063 5.747 1.146 8.298 15.543 13.137 24.244 14.521 0 0 30.346 1.089 55.404 5.106 14.268 2.288 20.27 5.686 29.258-5.63l12.359-15.561c4.875-6.077 10.687-16.768 5.221-22.097-.346-.337-.712-.661-1.096-.97z"
            fill="#b36d3c" />
        <path
            d="m312.96 129.26-12.36 15.57c-8.99 11.31-23.38 16.9-37.65 14.62-25.06-4.02-61.41-10.03-61.41-10.03-8.7-1.38-15.14-8.31-16.29-16.61 22.5 3.6 62.57 10.03 79.92 12.81 1.36.22 2.74.33 4.12.33 7.97 0 15.38-3.58 20.35-9.83l22.1-26.97c5.47 5.32 6.09 14.03 1.22 20.11z"
            fill="#995e34" />
        <g>
            <path
                d="m370.581 376.053c-.865 0-1.743-.15-2.602-.468-3.885-1.438-5.869-5.752-4.432-9.637l4.88-13.19c1.209-3.269.761-6.783-1.23-9.643-1.992-2.86-5.132-4.5-8.617-4.5h-69.855c-4.142 0-7.5-3.358-7.5-7.5s3.358-7.5 7.5-7.5h69.855c8.339 0 16.162 4.086 20.927 10.93s5.882 15.599 2.988 23.419l-4.88 13.19c-1.119 3.026-3.985 4.899-7.034 4.899z"
                fill="#ffaa4d" />
        </g>
        <path
            d="m416.75 431.38c-44.27 40.74-103.35 65.62-168.25 65.62-131.55 0-239.22-102.22-247.93-231.56v-.01c-.38-5.6-.57-11.24-.57-16.93 0-16.05 1.52-31.74 4.43-46.94v-.01c13.45-70.35 56.56-130.16 115.82-165.93-49.34 45.42-80.25 110.54-80.25 182.88 0 137.24 111.26 248.5 248.5 248.5 46.92 0 90.81-13.01 128.25-35.62z"
            fill="#ffaa4d" />
    </g>
</svg>