<svg id="Layer_1" data-name="Layer 1" xmlns="http://www.w3.org/2000/svg" xmlns:xlink="http://www.w3.org/1999/xlink"
    viewBox="0 0 1153.16 424.54">
    <defs>
        <style>
            .cls-1 {
                fill: none;
            }

            .cls-2 {
                clip-path: url(#clip-path);
            }

            .cls-3,
            .cls-4 {
                fill: #17181b;
            }

            .cls-4 {
                stroke: #0071c9;
                stroke-miterlimit: 10;
            }
        </style>
        <clipPath id="clip-path" transform="translate(-196.23 -14.94)">
            <rect class="cls-1" x="175.15" width="259.14" height="223.37" />
        </clipPath>
    </defs>
    <g id="Layer_2" data-name="Layer 2">
        <g id="layer">
            <g class="cls-2">
                <path class="cls-3"
                    d="M377.59,132.2a10.71,10.71,0,0,1-10.71.78c-3.81-2.34-6.24-7.62-6.24-14.81V96.79c0-10.31-4-17.75-10.89-19.66C338.11,73.69,329.26,88,326.09,93.36l-20.63,33V85.71c-.19-9.41-3.27-15-9-16.7-3.8-1.16-9.51-.59-15.22,7.88l-46.29,74.2a82,82,0,0,1-9.51-38c0-44.77,35.92-81.08,79.91-81.08S385.24,68.27,385.24,113h0c.4,8.75-2.34,15.77-7.78,19.27ZM402.5,113v-.57c-.19-53.68-43.42-97.47-96.33-97.47s-96.34,43.76-96.34,97.85,43.33,97.85,96.34,97.85a94.64,94.64,0,0,0,65.41-26.08,8.86,8.86,0,1,0-11.87-13.17l-.19.19a78,78,0,0,1-110.29-3c-.67-.71-1.33-1.43-2-2.17l41.08-66v30.61c0,14.69,5.71,19.47,10.5,20.82s12,.38,19.86-12L341.42,103a19.93,19.93,0,0,1,2.09-3.06v18.87c0,13.57,5.46,24.51,14.88,29.78a27.4,27.4,0,0,0,28.09-1.13C397.42,140.3,403.26,127.88,402.5,113ZM536.82,79.3a9.52,9.52,0,0,1,4.38,7.42A8.41,8.41,0,0,1,533,95.09a14.28,14.28,0,0,1-3-.57,31.34,31.34,0,0,0-18.45-6.28c-16.18,0-27.21,13.13-27.21,29.5S495.54,147,511.52,147a29.58,29.58,0,0,0,20.55-8.38,8.33,8.33,0,0,1,4.75-1.52,7.72,7.72,0,0,1,7.8,7.65v.15a8.1,8.1,0,0,1-3.8,6.66,45.17,45.17,0,1,1-29.11-79.91A43,43,0,0,1,536.82,79.3Zm45.29,19a31.6,31.6,0,0,1,31,32c0,17.51-14.27,32.54-31,32.54a32.73,32.73,0,0,1-32.35-32.54A32.23,32.23,0,0,1,582.11,98.33ZM581.92,147c7.42,0,13.69-7,13.69-16.56s-6.27-15.6-13.69-15.6c-8,0-14.66,5.9-14.66,15.6C567.26,139.81,573.92,147,581.92,147Zm41.28,5.17V108.85a9,9,0,0,1,6.68-8.85,8.63,8.63,0,0,1,10.25,6.64,8.51,8.51,0,0,1,.2,1.81v44a8.63,8.63,0,0,1-8.56,8.71,8,8,0,0,1-1.89-.19A9,9,0,0,1,623.2,152.21Zm-.76-70a10.23,10.23,0,0,1,10-10.46h.08A10.38,10.38,0,0,1,642.8,82.25a10.18,10.18,0,0,1-20.36,0Zm52.13,46.37V153a8.56,8.56,0,0,1-17.12,0h0V106a7,7,0,0,1,4.87-6.78,6.87,6.87,0,0,1,8.87,6.64,25.85,25.85,0,0,1,19.58-7.72c17.78,0,25.72,13.32,25.72,28.54v25.91a9.52,9.52,0,1,1-19,0v-24c0-7.61-1-14-11.89-14-7.72,0-10.94,6.41-10.94,14Zm97,9.28a5.68,5.68,0,0,1-4.53-2.26l-20.21-22V153a8.56,8.56,0,0,1-17.12,0h0V75.17a3.7,3.7,0,0,1,3.2-2.26,6,6,0,0,1,3.8,2.26l32,36a4.24,4.24,0,0,0,2.82,1.69,4.64,4.64,0,0,0,2.82-1.69l32.09-36a5.54,5.54,0,0,1,3.81-2.26,3.28,3.28,0,0,1,3.19,2.26v77.54a8.92,8.92,0,0,1-6.67,8.84,8.66,8.66,0,0,1-10.31-6.61,9.46,9.46,0,0,1-.2-1.91V113.64l-20.18,21.9a7,7,0,0,1-4.53,2.27Zm84.48,9.23c7.8,0,14.46-7,14.46-16.55s-6.85-15.79-14.46-15.79-13.89,6.47-13.89,15.79S848.28,147,856.09,147Zm17.88,8-.38-2.09c-3.42,6.66-14.27,9.7-21.12,9.7-16.36,0-28.54-14.84-28.54-32.53s12.37-32,29.49-32a27.38,27.38,0,0,1,20.36,9.71l.38-2.1A6.66,6.66,0,0,1,880.63,99h.19a7,7,0,0,1,6.85,6.85v49.09a6.83,6.83,0,0,1-6.81,6.85h0a6.54,6.54,0,0,1-6.84-6.23C874,155.41,874,155.26,874,155.12Zm62.65-39.38h-1.9c-10.79.61-12.84,7.25-12.84,14.9v25.7A8.6,8.6,0,0,1,904.76,158a7.31,7.31,0,0,1,0-1.62v-50a6.89,6.89,0,0,1,4-6.41c5-2.13,9.21,1.9,9.21,6.66,6.32-6.43,11.53-7.84,16.74-8h1.68a8.39,8.39,0,0,1,7.82,8.66,8.2,8.2,0,0,1-7.61,8.46Zm67.49,32.34a8.09,8.09,0,0,1,1.29,4.09,8.93,8.93,0,0,1-8.56,8.57c-3,0-5.57-2.23-7.61-4.84L969.5,133.07v19a8.56,8.56,0,1,1-17.12,0V82.46a8.88,8.88,0,0,1,8.75-9h.27a8.59,8.59,0,0,1,8.1,8.74v43.55l19.73-21.79c2.06-2.22,4.47-4.64,7.44-4.64a8.55,8.55,0,0,1,8.2,8.37,7.24,7.24,0,0,1-1.12,3.81L988.11,128.6l16,19.37Zm34.25-32.8c-4.76,0-12.56,2.47-12.56,9.89h25.31c-.19-7.42-8.19-9.89-12.75-9.89Zm22.83,21.31H1025.8c0,10.47,10.09,12.18,14.46,12.18a28.39,28.39,0,0,0,11.42-2.29,8.65,8.65,0,0,1,4.56-1.33,7.19,7.19,0,0,1,7,7.23,7.68,7.68,0,0,1-3.8,6.28c-5.33,4-12.37,5-19,5-17.69,0-32.34-9.52-32.34-31.78,0-17.5,8.94-32.72,29.87-32.72,16.93,0,29.68,11,30.06,30.63A7,7,0,0,1,1061.19,136.59ZM1109,163.23h-4.65c-13,0-20.66-5.71-20.66-26v-21.6h-3.8a8.72,8.72,0,0,1-8-5.88c-1.64-6,2.68-11.24,7.26-11.24h4.48v-18a8.9,8.9,0,0,1,4-7.61c6.34-4,13.15,1.14,13.15,8.07V98.5h7.08a8.23,8.23,0,0,1,7.61,8.66c0,4.43-3.81,8.46-7.61,8.46h-7.08v18.23c0,11.7.55,14.12,5.71,14.12h2.41a7.61,7.61,0,0,1,7.61,7.61,7.78,7.78,0,0,1-7.61,7.61Zm85.62-83.91a9.52,9.52,0,0,1,4.37,7.42,8.41,8.41,0,0,1-8.18,8.37,14.3,14.3,0,0,1-3-.57,31.39,31.39,0,0,0-18.46-6.28c-16.17,0-27.21,13.13-27.21,29.49s11.23,29.31,27.21,29.31a29.55,29.55,0,0,0,20.55-8.38,8.34,8.34,0,0,1,4.76-1.52,7.73,7.73,0,0,1,7.8,7.65V145a8.11,8.11,0,0,1-3.81,6.66,45.17,45.17,0,1,1-29.11-79.91A42.61,42.61,0,0,1,1194.57,79.32Zm44.33,67.74c7.8,0,14.46-7,14.46-16.56s-6.85-15.79-14.46-15.79S1225,121.18,1225,130.5,1231.29,147.06,1238.9,147.06Zm19.4,8-.38-2.1c-3.42,6.66-14.27,9.71-21.12,9.71-16.36,0-28.54-14.84-28.54-32.54s12.37-32,29.5-32a27.35,27.35,0,0,1,20.35,9.7l.38-2.09a6.67,6.67,0,0,1,6.47-6.85h.19a7,7,0,0,1,6.85,6.85v49.09a6.84,6.84,0,0,1-6.81,6.85h0a6.56,6.56,0,0,1-6.84-6.24c0-.15,0-.29,0-.44Zm60.7-8c7.8,0,13.89-7.43,13.89-16.56,0-9.51-6.28-15.79-13.89-15.79s-14.46,6.28-14.46,15.79S1311.2,147,1319,147Zm-14.65,10.16V179a8.57,8.57,0,0,1-17.13,0h0v-71.9a7,7,0,0,1,5.71-6.94c4.24-.67,7.61,2.68,7.61,7.36a27.49,27.49,0,0,1,20-8.18c16.57,0,28.84,13.94,28.84,31.26s-11.72,31.83-27.91,31.83c-5-.19-12.46-1.67-17.12-5.21Z"
                    transform="translate(-196.23 -14.94)" fill=' #17181b'/>
            </g>
        </g>
    </g>
</svg>