<svg width="22" height="22" viewBox="0 0 22 22" fill="none" xmlns="http://www.w3.org/2000/svg">
<path d="M0 11C0 4.92487 4.92487 0 11 0C17.0751 0 22 4.92487 22 11C22 17.0751 17.0751 22 11 22C4.92487 22 0 17.0751 0 11Z" fill="#3FBA9B"/>
<path d="M12.5833 5.74708C10.525 4.13637 8.52083 4.19389 6.4625 5.74708V6.49491C8.52083 7.99057 10.525 8.0481 12.5833 6.49491V5.74708ZM15.725 14.2608H14.4792V15.5839H13.0167V14.2608H11.7167V12.7077H13.0167V11.327H14.4792V12.7077H15.725V14.2608ZM14.0458 8.96851C16.2667 9.14108 18 11.0969 18 13.4555C18 15.9866 16.05 18 13.7208 18C12.2042 18 10.85 17.1371 10.0917 15.8716C8.46667 16.0441 6.7875 15.4114 5 13.9732V4.94172C8.19583 2.4106 10.9042 2.29555 14.0458 4.94172V8.96851ZM9.55 14.3759C9.49583 14.0883 9.44167 13.8006 9.44167 13.4555C9.44167 13.1679 9.49583 12.9378 9.55 12.6501C8.52083 12.6501 7.4375 12.3625 6.4625 11.7297V13.1679C7.49167 13.9732 8.52083 14.3759 9.55 14.3759ZM10.1458 11.0394C10.6875 10.119 11.5542 9.42871 12.5833 9.08356V8.33573C10.5792 9.54376 8.46667 9.48623 6.4625 8.2782V9.94644C7.70833 10.8668 8.9 11.212 10.1458 11.0394ZM13.7208 10.5217C12.15 10.5217 10.9042 11.8448 10.9042 13.4555C10.9042 15.1237 12.15 16.4468 13.7208 16.4468C15.2917 16.4468 16.5375 15.1237 16.5375 13.4555C16.5375 11.8448 15.2917 10.5217 13.7208 10.5217Z" fill="white"/>
</svg>
