<svg width="14" height="18" viewBox="0 0 14 18" fill="none" xmlns="http://www.w3.org/2000/svg">
    <path
        d="M12.8952 15.3467C12.4277 17.2217 10.5284 18.3628 8.65301 17.8952C6.77834 17.4277 5.63711 15.5286 6.10484 13.6537C6.57214 11.7785 8.47142 10.6373 10.3463 11.1047C12.2216 11.5722 13.3628 13.4716 12.8952 15.3467Z"
        fill="#F05454" />
    <path
        d="M9.45493 15.1159C9.42407 15.1157 9.39436 15.1044 9.37139 15.0841L8.91595 14.6363C8.9047 14.6257 8.89575 14.6129 8.88964 14.5988C8.88352 14.5847 8.88037 14.5695 8.88037 14.5542C8.88037 14.5389 8.88352 14.5237 8.88964 14.5096C8.89575 14.4954 8.9047 14.4827 8.91595 14.4721L10.0478 13.3936C10.0694 13.3729 10.0985 13.3613 10.1287 13.3613C10.1589 13.3613 10.1879 13.3729 10.2095 13.3936L10.673 13.8335C10.6843 13.8441 10.6932 13.8569 10.6993 13.871C10.7055 13.8851 10.7086 13.9003 10.7086 13.9156C10.7086 13.931 10.7055 13.9461 10.6993 13.9603C10.6932 13.9744 10.6843 13.9871 10.673 13.9978L9.525 15.0841C9.50615 15.1025 9.48135 15.1137 9.45493 15.1159Z"
        fill="white" />
    <path
        d="M10.6731 12.9561L9.7514 12.0843C9.61056 11.95 9.42207 11.875 9.22589 11.875C9.1252 11.8761 9.02573 11.8968 8.93322 11.9359C8.84071 11.975 8.757 12.0318 8.68691 12.1029C8.66289 12.1239 8.64835 12.1534 8.64648 12.185C8.64662 12.1999 8.64979 12.2146 8.65581 12.2282C8.66183 12.2419 8.67057 12.2542 8.68152 12.2645L9.94543 13.4648C9.96915 13.4837 9.99165 13.5041 10.0128 13.5257C10.1514 13.6662 10.2325 13.852 10.2405 14.0476C10.2484 14.2431 10.1827 14.4347 10.0559 14.5856L10.6731 13.9947C10.7439 13.9271 10.8002 13.8461 10.8386 13.7567C10.877 13.6673 10.8969 13.5712 10.8969 13.4741C10.8969 13.377 10.877 13.2809 10.8386 13.1915C10.8002 13.102 10.7439 13.0211 10.6731 12.9534V12.9561Z"
        fill="white" />
    <path
        d="M9.56273 14.9534C9.42409 14.813 9.34303 14.6272 9.33507 14.4316C9.32712 14.236 9.39283 14.0444 9.51961 13.8936L8.91595 14.4712C8.84313 14.5394 8.78544 14.6217 8.74648 14.7129C8.70753 14.8041 8.68816 14.9022 8.68958 15.0011C8.68774 15.0994 8.70614 15.1969 8.74365 15.288C8.78116 15.3791 8.83702 15.4618 8.90787 15.5311L10.2904 16.8903C10.301 16.9006 10.3137 16.9087 10.3275 16.9142C10.3414 16.9196 10.3563 16.9223 10.3712 16.9221C10.4021 16.9219 10.4318 16.9106 10.4547 16.8903C10.5258 16.8209 10.5822 16.7383 10.6207 16.6474C10.6591 16.5564 10.6789 16.4589 10.6789 16.3604C10.6789 16.2619 10.6591 16.1644 10.6207 16.0734C10.5822 15.9825 10.5258 15.8999 10.4547 15.8305L9.61124 15.0011L9.56273 14.9534Z"
        fill="white" />
    <path
        d="M13.7225 7.30401C13.4132 6.26035 12.8502 5.29941 12.0919 4.5191L12.3168 4.29423C12.4745 4.13651 12.4745 3.88079 12.3168 3.72307L10.2769 1.68317C10.1192 1.52546 9.86344 1.52546 9.70572 1.68317L9.48084 1.90805C8.70051 1.14967 7.73957 0.58669 6.69591 0.277405C5.62188 -0.0409309 4.47492 -0.0862395 3.37912 0.146401C3.19433 0.185639 3.06141 0.347678 3.05911 0.536596C3.05682 0.72546 3.18577 0.890698 3.36952 0.934393L3.76491 1.02837C4.83512 1.28278 5.81194 1.82837 6.58979 2.60622L7.68622 3.70265L7.56383 3.82504C7.40611 3.98276 7.40611 4.23847 7.56383 4.39619L9.60373 6.43609C9.76142 6.59381 10.0172 6.59381 10.1749 6.43609L10.2973 6.3137L11.3937 7.41013C12.1715 8.18798 12.7171 9.16478 12.9715 10.235L13.0655 10.6304C13.1088 10.8125 13.2716 10.9408 13.4584 10.9408C13.46 10.9408 13.4617 10.9408 13.4633 10.9408C13.6522 10.9385 13.8143 10.8056 13.8535 10.6208C14.0861 9.52498 14.0408 8.37805 13.7225 7.30401Z"
        fill="#F05454" />
    <path
        d="M7.11515 5.08984L0.118289 12.0867C-0.0394297 12.2444 -0.0394297 12.5001 0.118289 12.6579L1.34222 13.8818C1.42108 13.9606 1.52444 14.0001 1.62777 14.0001C1.73111 14.0001 1.83449 13.9607 1.91332 13.8818L8.91018 6.88493L7.11515 5.08984Z"
        fill="#F05454" />
</svg>