<svg width="384" height="108" viewBox="0 0 384 108" fill="none" xmlns="http://www.w3.org/2000/svg">
<g filter="url(#filter0_bd)">
<rect x="29" y="29" width="326" height="50" rx="10" fill="#212129"/>
<rect x="28.5" y="28.5" width="327" height="51" rx="10.5" stroke="url(#paint0_radial)"/>
<rect x="28.5" y="28.5" width="327" height="51" rx="10.5" stroke="url(#paint1_radial)"/>
<rect x="28.5" y="28.5" width="327" height="51" rx="10.5" stroke="url(#paint2_radial)"/>
</g>
<path d="M177.234 57.454C177.234 52.882 170.61 54.646 170.61 51.82C170.61 50.614 171.528 50.038 172.716 50.074C174.012 50.11 174.75 50.884 174.822 51.73H177.09C176.91 49.588 175.218 48.328 172.824 48.328C170.268 48.328 168.522 49.696 168.522 51.892C168.522 56.5 175.164 54.538 175.164 57.562C175.164 58.624 174.354 59.398 172.914 59.398C171.492 59.398 170.772 58.57 170.682 57.544H168.486C168.486 59.758 170.412 61.126 172.914 61.126C175.704 61.126 177.234 59.326 177.234 57.454ZM181.582 61H183.742L185.74 53.674L187.738 61H189.898L192.976 51.082H190.96L188.908 59.02L186.892 51.082H184.75L182.644 59.056L180.574 51.082H178.486L181.582 61ZM193.825 55.996C193.825 59.056 195.895 61.162 198.469 61.162C200.125 61.162 201.313 60.37 201.943 59.524V61H204.013V51.082H201.943V52.522C201.331 51.712 200.179 50.92 198.505 50.92C195.895 50.92 193.825 52.936 193.825 55.996ZM201.943 56.032C201.943 58.174 200.485 59.38 198.937 59.38C197.407 59.38 195.931 58.138 195.931 55.996C195.931 53.854 197.407 52.702 198.937 52.702C200.485 52.702 201.943 53.908 201.943 56.032ZM208.76 52.54V51.082H206.708V65.716H208.76V59.56C209.408 60.334 210.578 61.162 212.216 61.162C214.826 61.162 216.878 59.056 216.878 55.996C216.878 52.936 214.826 50.92 212.216 50.92C210.596 50.92 209.39 51.712 208.76 52.54ZM214.79 55.996C214.79 58.138 213.314 59.38 211.766 59.38C210.236 59.38 208.76 58.174 208.76 56.032C208.76 53.908 210.236 52.702 211.766 52.702C213.314 52.702 214.79 53.854 214.79 55.996Z" fill="white"/>
<defs>
<filter id="filter0_bd" x="-14" y="-14" width="412" height="136" filterUnits="userSpaceOnUse" color-interpolation-filters="sRGB">
<feFlood flood-opacity="0" result="BackgroundImageFix"/>
<feGaussianBlur in="BackgroundImage" stdDeviation="21"/>
<feComposite in2="SourceAlpha" operator="in" result="effect1_backgroundBlur"/>
<feColorMatrix in="SourceAlpha" type="matrix" values="0 0 0 0 0 0 0 0 0 0 0 0 0 0 0 0 0 0 127 0"/>
<feMorphology radius="6" operator="erode" in="SourceAlpha" result="effect2_dropShadow"/>
<feOffset/>
<feGaussianBlur stdDeviation="17"/>
<feColorMatrix type="matrix" values="0 0 0 0 0.905882 0 0 0 0 0.254902 0 0 0 0 0.34902 0 0 0 0.2 0"/>
<feBlend mode="normal" in2="effect1_backgroundBlur" result="effect2_dropShadow"/>
<feBlend mode="normal" in="SourceGraphic" in2="effect2_dropShadow" result="shape"/>
</filter>
<radialGradient id="paint0_radial" cx="0" cy="0" r="1" gradientUnits="userSpaceOnUse" gradientTransform="translate(192 54) rotate(-170.524) scale(210.865 53.3149)">
<stop stop-color="white"/>
<stop offset="1" stop-color="white" stop-opacity="0"/>
</radialGradient>
<radialGradient id="paint1_radial" cx="0" cy="0" r="1" gradientUnits="userSpaceOnUse" gradientTransform="translate(192 54) rotate(7.50993) scale(197.292 37.1482)">
<stop stop-color="#E74159"/>
<stop offset="1" stop-color="#E74159" stop-opacity="0"/>
</radialGradient>
<radialGradient id="paint2_radial" cx="0" cy="0" r="1" gradientUnits="userSpaceOnUse" gradientTransform="translate(192 54) rotate(171.562) scale(180.603 39.1804)">
<stop stop-color="#151515"/>
<stop offset="1" stop-color="#151515" stop-opacity="0"/>
</radialGradient>
</defs>
</svg>
