<svg width="51" height="20" viewBox="0 0 51 20" fill="none" xmlns="http://www.w3.org/2000/svg">
<path d="M12.84 3.765C12.93 3.60833 13.0633 3.47833 13.24 3.375C13.42 3.26833 13.6283 3.215 13.865 3.215C14.1083 3.215 14.3283 3.27333 14.525 3.39C14.725 3.50667 14.8817 3.67167 14.995 3.885C15.1083 4.095 15.165 4.34 15.165 4.62C15.165 4.89667 15.1083 5.14333 14.995 5.36C14.8817 5.57667 14.725 5.745 14.525 5.865C14.3283 5.985 14.1083 6.045 13.865 6.045C13.6317 6.045 13.425 5.99333 13.245 5.89C13.0683 5.78333 12.9333 5.65167 12.84 5.495V7.3H12.385V3.26H12.84V3.765ZM14.7 4.62C14.7 4.41333 14.6583 4.23333 14.575 4.08C14.4917 3.92667 14.3783 3.81 14.235 3.73C14.095 3.65 13.94 3.61 13.77 3.61C13.6033 3.61 13.4483 3.65167 13.305 3.735C13.165 3.815 13.0517 3.93333 12.965 4.09C12.8817 4.24333 12.84 4.42167 12.84 4.625C12.84 4.83167 12.8817 5.01333 12.965 5.17C13.0517 5.32333 13.165 5.44167 13.305 5.525C13.4483 5.605 13.6033 5.645 13.77 5.645C13.94 5.645 14.095 5.605 14.235 5.525C14.3783 5.44167 14.4917 5.32333 14.575 5.17C14.6583 5.01333 14.7 4.83 14.7 4.62ZM16.9589 6.045C16.7022 6.045 16.4689 5.98667 16.2589 5.87C16.0522 5.75333 15.8889 5.58833 15.7689 5.375C15.6522 5.15833 15.5939 4.90833 15.5939 4.625C15.5939 4.345 15.6539 4.09833 15.7739 3.885C15.8972 3.66833 16.0639 3.50333 16.2739 3.39C16.4839 3.27333 16.7189 3.215 16.9789 3.215C17.2389 3.215 17.4739 3.27333 17.6839 3.39C17.8939 3.50333 18.0589 3.66667 18.1789 3.88C18.3022 4.09333 18.3639 4.34167 18.3639 4.625C18.3639 4.90833 18.3006 5.15833 18.1739 5.375C18.0506 5.58833 17.8822 5.75333 17.6689 5.87C17.4556 5.98667 17.2189 6.045 16.9589 6.045ZM16.9589 5.645C17.1222 5.645 17.2756 5.60667 17.4189 5.53C17.5622 5.45333 17.6772 5.33833 17.7639 5.185C17.8539 5.03167 17.8989 4.845 17.8989 4.625C17.8989 4.405 17.8556 4.21833 17.7689 4.065C17.6822 3.91167 17.5689 3.79833 17.4289 3.725C17.2889 3.64833 17.1372 3.61 16.9739 3.61C16.8072 3.61 16.6539 3.64833 16.5139 3.725C16.3772 3.79833 16.2672 3.91167 16.1839 4.065C16.1006 4.21833 16.0589 4.405 16.0589 4.625C16.0589 4.84833 16.0989 5.03667 16.1789 5.19C16.2622 5.34333 16.3722 5.45833 16.5089 5.535C16.6456 5.60833 16.7956 5.645 16.9589 5.645ZM22.6121 3.26L21.7571 6H21.2871L20.6271 3.825L19.9671 6H19.4971L18.6371 3.26H19.1021L19.7321 5.56L20.4121 3.26H20.8771L21.5421 5.565L22.1621 3.26H22.6121ZM25.5637 4.525C25.5637 4.61167 25.5587 4.70333 25.5487 4.8H23.3587C23.3754 5.07 23.467 5.28167 23.6337 5.435C23.8037 5.585 24.0087 5.66 24.2487 5.66C24.4454 5.66 24.6087 5.615 24.7387 5.525C24.872 5.43167 24.9654 5.30833 25.0187 5.155H25.5087C25.4354 5.41833 25.2887 5.63333 25.0687 5.8C24.8487 5.96333 24.5754 6.045 24.2487 6.045C23.9887 6.045 23.7554 5.98667 23.5487 5.87C23.3454 5.75333 23.1854 5.58833 23.0687 5.375C22.952 5.15833 22.8937 4.90833 22.8937 4.625C22.8937 4.34167 22.9504 4.09333 23.0637 3.88C23.177 3.66667 23.3354 3.50333 23.5387 3.39C23.7454 3.27333 23.982 3.215 24.2487 3.215C24.5087 3.215 24.7387 3.27167 24.9387 3.385C25.1387 3.49833 25.292 3.655 25.3987 3.855C25.5087 4.05167 25.5637 4.275 25.5637 4.525ZM25.0937 4.43C25.0937 4.25667 25.0554 4.10833 24.9787 3.985C24.902 3.85833 24.797 3.76333 24.6637 3.7C24.5337 3.63333 24.3887 3.6 24.2287 3.6C23.9987 3.6 23.802 3.67333 23.6387 3.82C23.4787 3.96667 23.387 4.17 23.3637 4.43H25.0937ZM26.6193 3.705C26.6993 3.54833 26.8126 3.42667 26.9593 3.34C27.1093 3.25333 27.291 3.21 27.5043 3.21V3.68H27.3843C26.8743 3.68 26.6193 3.95667 26.6193 4.51V6H26.1643V3.26H26.6193V3.705ZM30.5295 4.525C30.5295 4.61167 30.5245 4.70333 30.5145 4.8H28.3245C28.3412 5.07 28.4329 5.28167 28.5995 5.435C28.7695 5.585 28.9745 5.66 29.2145 5.66C29.4112 5.66 29.5745 5.615 29.7045 5.525C29.8379 5.43167 29.9312 5.30833 29.9845 5.155H30.4745C30.4012 5.41833 30.2545 5.63333 30.0345 5.8C29.8145 5.96333 29.5412 6.045 29.2145 6.045C28.9545 6.045 28.7212 5.98667 28.5145 5.87C28.3112 5.75333 28.1512 5.58833 28.0345 5.375C27.9179 5.15833 27.8595 4.90833 27.8595 4.625C27.8595 4.34167 27.9162 4.09333 28.0295 3.88C28.1429 3.66667 28.3012 3.50333 28.5045 3.39C28.7112 3.27333 28.9479 3.215 29.2145 3.215C29.4745 3.215 29.7045 3.27167 29.9045 3.385C30.1045 3.49833 30.2579 3.655 30.3645 3.855C30.4745 4.05167 30.5295 4.275 30.5295 4.525ZM30.0595 4.43C30.0595 4.25667 30.0212 4.10833 29.9445 3.985C29.8679 3.85833 29.7629 3.76333 29.6295 3.7C29.4995 3.63333 29.3545 3.6 29.1945 3.6C28.9645 3.6 28.7679 3.67333 28.6045 3.82C28.4445 3.96667 28.3529 4.17 28.3295 4.43H30.0595ZM30.9601 4.62C30.9601 4.34 31.0168 4.095 31.1301 3.885C31.2435 3.67167 31.3985 3.50667 31.5951 3.39C31.7951 3.27333 32.0185 3.215 32.2651 3.215C32.4785 3.215 32.6768 3.265 32.8601 3.365C33.0435 3.46167 33.1835 3.59 33.2801 3.75V2.3H33.7401V6H33.2801V5.485C33.1901 5.64833 33.0568 5.78333 32.8801 5.89C32.7035 5.99333 32.4968 6.045 32.2601 6.045C32.0168 6.045 31.7951 5.985 31.5951 5.865C31.3985 5.745 31.2435 5.57667 31.1301 5.36C31.0168 5.14333 30.9601 4.89667 30.9601 4.62ZM33.2801 4.625C33.2801 4.41833 33.2385 4.23833 33.1551 4.085C33.0718 3.93167 32.9585 3.815 32.8151 3.735C32.6751 3.65167 32.5201 3.61 32.3501 3.61C32.1801 3.61 32.0251 3.65 31.8851 3.73C31.7451 3.81 31.6335 3.92667 31.5501 4.08C31.4668 4.23333 31.4251 4.41333 31.4251 4.62C31.4251 4.83 31.4668 5.01333 31.5501 5.17C31.6335 5.32333 31.7451 5.44167 31.8851 5.525C32.0251 5.605 32.1801 5.645 32.3501 5.645C32.5201 5.645 32.6751 5.605 32.8151 5.525C32.9585 5.44167 33.0718 5.32333 33.1551 5.17C33.2385 5.01333 33.2801 4.83167 33.2801 4.625ZM36.297 3.77C36.3904 3.60667 36.527 3.47333 36.707 3.37C36.887 3.26667 37.092 3.215 37.322 3.215C37.5687 3.215 37.7904 3.27333 37.987 3.39C38.1837 3.50667 38.3387 3.67167 38.452 3.885C38.5654 4.095 38.622 4.34 38.622 4.62C38.622 4.89667 38.5654 5.14333 38.452 5.36C38.3387 5.57667 38.182 5.745 37.982 5.865C37.7854 5.985 37.5654 6.045 37.322 6.045C37.0854 6.045 36.877 5.99333 36.697 5.89C36.5204 5.78667 36.387 5.655 36.297 5.495V6H35.842V2.3H36.297V3.77ZM38.157 4.62C38.157 4.41333 38.1154 4.23333 38.032 4.08C37.9487 3.92667 37.8354 3.81 37.692 3.73C37.552 3.65 37.397 3.61 37.227 3.61C37.0604 3.61 36.9054 3.65167 36.762 3.735C36.622 3.815 36.5087 3.93333 36.422 4.09C36.3387 4.24333 36.297 4.42167 36.297 4.625C36.297 4.83167 36.3387 5.01333 36.422 5.17C36.5087 5.32333 36.622 5.44167 36.762 5.525C36.9054 5.605 37.0604 5.645 37.227 5.645C37.397 5.645 37.552 5.605 37.692 5.525C37.8354 5.44167 37.9487 5.32333 38.032 5.17C38.1154 5.01333 38.157 4.83 38.157 4.62ZM41.5809 3.26L39.9309 7.29H39.4609L40.0009 5.97L38.8959 3.26H39.4009L40.2609 5.48L41.1109 3.26H41.5809Z" fill="white"/>
<path d="M2.35147 13.899C2.27438 13.899 2.19728 13.899 2.08163 13.8219L0.770976 12.4738C0.693878 12.3968 0.693878 12.3198 0.693878 12.2042C0.693878 12.0886 0.693878 12.0501 0.770976 11.9346L4.16327 8.62209C4.24036 8.54505 4.31746 8.54505 4.43311 8.54505C4.5102 8.54505 4.5873 8.54505 4.70295 8.62209L6.12925 9.97019C6.20635 9.97019 6.20635 10.1243 6.20635 10.2398C6.20635 10.3554 6.20635 10.3939 6.12925 10.5094L2.65986 13.8219C2.54422 13.899 2.46712 13.899 2.35147 13.899Z" fill="url(#paint0_radial_14_2)"/>
<path d="M6.0907 7.31249L3.31519 4.61628C2.89116 4.26962 2.35147 4 1.77324 4C1.19501 4 0.578231 4.26962 0.154195 4.69331C0 4.77035 0 4.84738 0 4.92442C0 5.00145 0 5.07849 0.0770975 5.19404L3.89342 8.81467C3.97052 8.89171 4.04762 8.89171 4.04762 8.96874C4.89569 9.89316 4.97279 11.2413 4.20181 12.1657L6.05215 10.3939C6.47619 10.0472 6.74603 9.46947 6.74603 8.85319C6.74603 8.23691 6.51474 7.73619 6.0907 7.31249Z" fill="url(#paint1_linear_14_2)"/>
<path d="M2.7755 13.3982C1.96598 12.4738 1.85033 11.0872 2.69841 10.1628L0.848068 11.9346C0.424031 12.3583 0.15419 12.936 0.15419 13.5523C0.15419 14.1686 0.424031 14.7463 0.848068 15.17L4.89569 19.3299C5.01133 19.4069 5.08843 19.4069 5.16553 19.4069C5.24262 19.4069 5.31972 19.4069 5.43537 19.3299C5.85941 18.9062 6.12925 18.3285 6.12925 17.7122C6.12925 17.1344 5.85941 16.5181 5.43537 16.0945L2.89115 13.5523C2.89115 13.4753 2.7755 13.4753 2.7755 13.3982Z" fill="url(#paint2_linear_14_2)"/>
<path d="M14.6485 8.96873C14.4558 8.96873 14.3016 9.00724 14.1474 9.04576C13.9932 9.08428 13.839 9.16131 13.6848 9.23835C13.5306 9.31538 13.415 9.43093 13.2993 9.54649C13.2608 9.585 13.2222 9.62352 13.1837 9.66204V9.04576H11.873V14.1686H13.1837V11.9346C13.1837 11.3183 13.2993 10.8946 13.5692 10.625C13.8005 10.3554 14.1859 10.2398 14.6485 10.2398C14.7256 10.2398 14.8027 10.2398 14.8798 10.2398C14.9184 10.2398 14.9955 10.2783 15.1111 10.2783L15.1882 10.3168V9.1228H15.1497C14.9955 9.00724 14.8413 8.96873 14.6485 8.96873Z" fill="white"/>
<path d="M50.4603 8.96873C50.2676 8.96873 50.1134 9.00724 49.9592 9.04576C49.805 9.08428 49.6508 9.16131 49.4966 9.23835C49.3424 9.31538 49.2267 9.43093 49.1111 9.54649C49.0726 9.585 49.034 9.62352 48.9955 9.66204V9.04576H47.6848V14.1686H48.9955V11.9346C48.9955 11.3183 49.1111 10.8946 49.3809 10.625C49.6122 10.3554 49.9977 10.2398 50.4603 10.2398C50.5374 10.2398 50.6145 10.2398 50.6916 10.2398C50.7301 10.2398 50.8072 10.2783 50.9229 10.2783L51 10.3168V9.1228H50.9614C50.8072 9.00724 50.653 8.96873 50.4603 8.96873Z" fill="white"/>
<path d="M22.0884 9.70056C21.8571 9.46946 21.5488 9.23835 21.2404 9.1228C20.8934 8.96873 20.5079 8.8917 20.1225 8.8917C19.737 8.8917 19.3515 8.96873 19.0045 9.1228C18.6962 9.27687 18.3878 9.46946 18.1565 9.70056C17.9252 9.93166 17.7324 10.2398 17.6168 10.5479C17.5011 10.8561 17.424 11.2027 17.424 11.5879C17.424 11.9346 17.5011 12.3197 17.6168 12.6279C17.7324 12.936 17.9252 13.2442 18.1565 13.4753C18.3878 13.7064 18.6962 13.9375 19.0045 14.053C19.3129 14.2071 19.6984 14.2841 20.1225 14.2841C20.5079 14.2841 20.8934 14.2071 21.2404 14.053C21.5873 13.899 21.8571 13.7064 22.0884 13.4753C22.3197 13.2442 22.5125 12.936 22.6281 12.6279C22.7438 12.3197 22.8209 11.9731 22.8209 11.5879C22.8209 11.2413 22.7438 10.8946 22.6281 10.5479C22.5125 10.2398 22.3583 9.97018 22.0884 9.70056ZM20.7007 12.9745C20.5079 13.0516 20.3537 13.0901 20.1225 13.0901C19.8912 13.0901 19.737 13.0516 19.5442 12.9745C19.39 12.8975 19.2358 12.782 19.1202 12.6664C19.0045 12.5508 18.8889 12.3583 18.8503 12.2042C18.7732 12.0116 18.7732 11.819 18.7732 11.6264C18.7732 11.4338 18.8118 11.2413 18.8503 11.0487C18.8889 10.8561 19.0045 10.702 19.1202 10.5865C19.2358 10.4709 19.39 10.3554 19.5442 10.2783C19.6984 10.2013 19.8912 10.1628 20.1225 10.1628C20.3537 10.1628 20.5079 10.2013 20.7007 10.2783C20.8934 10.3554 21.0091 10.4709 21.1633 10.5865C21.2789 10.702 21.3946 10.8946 21.4331 11.0487C21.5102 11.2413 21.5488 11.4338 21.5488 11.6264C21.5488 11.819 21.5102 12.0116 21.4331 12.2042C21.356 12.3968 21.2789 12.5508 21.1633 12.6664C21.0091 12.782 20.8549 12.8975 20.7007 12.9745Z" fill="white"/>
<path d="M29.3742 11.7035C29.3742 12.0886 29.2971 12.4738 29.1043 12.7434C28.9116 13.0131 28.6417 13.1286 28.2562 13.1286C28.0635 13.1286 27.9093 13.0901 27.7551 13.0131C27.6395 12.936 27.5238 12.8205 27.4467 12.7434C27.3696 12.6279 27.3311 12.4738 27.2925 12.2812C27.254 12.0886 27.254 11.8961 27.254 11.7035V9.04577H25.9433V12.0886C25.9433 12.4353 25.9819 12.7049 26.0204 12.9745C26.059 13.2056 26.1361 13.4367 26.2903 13.6293C26.4444 13.8604 26.6372 14.0145 26.907 14.1301C27.1769 14.2456 27.4853 14.3226 27.8322 14.3226C28.3719 14.3226 29.0272 14.2456 29.3742 13.8219V14.2071H30.6848V9.08428H29.3742V11.7035Z" fill="white"/>
<path d="M36.7755 13.0131H36.4671C36.3515 13.0131 36.2744 13.0131 36.1973 12.9745C36.1202 12.9745 36.0816 12.936 36.0045 12.859C35.966 12.8205 35.9274 12.7049 35.8889 12.5894C35.8503 12.5123 35.8503 12.3583 35.8503 12.1272V10.1628H37.0068V9.04576H35.8503V7.54359H34.5397V9.04576H33.6916V10.1628H34.5397V12.3968C34.5397 12.8205 34.5782 13.1671 34.7324 13.4367C34.8481 13.6678 35.0023 13.8604 35.195 13.976C35.3877 14.0915 35.5419 14.1686 35.7732 14.2071C35.966 14.2456 36.1202 14.2456 36.2744 14.2456C36.4671 14.2456 36.6213 14.2456 36.7755 14.2071C36.9297 14.2071 37.0453 14.1686 37.161 14.1686H37.2381V12.9745L37.1224 13.0131C37.0068 13.0131 36.9297 13.0131 36.7755 13.0131Z" fill="white"/>
<path d="M43.907 9.58501C43.6757 9.3539 43.4444 9.19983 43.136 9.08428C42.8277 8.96873 42.5193 8.8917 42.2109 8.8917C41.8254 8.8917 41.4399 8.96873 41.1315 9.08428C40.8231 9.19983 40.5533 9.39242 40.322 9.66204C40.0907 9.89315 39.9365 10.2013 39.8209 10.5094C39.7052 10.8176 39.6281 11.2027 39.6281 11.5879C39.6281 11.9346 39.6667 12.3197 39.7823 12.6279C39.898 12.936 40.0521 13.2442 40.2834 13.4753C40.5147 13.7064 40.7846 13.899 41.093 14.053C41.4014 14.1686 41.7868 14.2841 42.2109 14.2841C42.5193 14.2841 42.8277 14.2456 43.0975 14.1686C43.3673 14.0915 43.5986 13.9375 43.7914 13.8219C43.9841 13.6679 44.1383 13.4753 44.2925 13.2827C44.4082 13.0901 44.4853 12.859 44.5238 12.6279V12.5508H43.2131V12.5894C43.136 12.7434 43.0204 12.8975 42.9048 13.0131C42.7891 13.1286 42.5578 13.2056 42.2494 13.2056C42.0181 13.2056 41.8254 13.1671 41.6712 13.1286C41.517 13.0516 41.4014 12.9745 41.2857 12.859C41.2086 12.7434 41.1315 12.6279 41.0544 12.4738C41.0159 12.3583 40.9773 12.2042 40.9773 12.0886H44.5238V12.0116C44.5624 11.8575 44.5624 11.7035 44.5624 11.5879C44.5624 11.4724 44.5624 11.3568 44.5624 11.2798C44.5624 10.9716 44.4853 10.6635 44.3696 10.3554C44.2925 10.0472 44.0998 9.77759 43.907 9.58501ZM42.1723 9.93166C42.5193 9.93166 42.7891 10.0472 42.9819 10.2398C43.1746 10.4324 43.2902 10.702 43.2902 11.0102H40.9773C40.9773 10.6635 41.093 10.3939 41.3243 10.2398C41.517 10.0472 41.8254 9.93166 42.1723 9.93166Z" fill="white"/>
<defs>
<radialGradient id="paint0_radial_14_2" cx="0" cy="0" r="1" gradientUnits="userSpaceOnUse" gradientTransform="translate(3.4424 11.2228) scale(2.72243 2.72021)">
<stop stop-color="#BF4650"/>
<stop offset="1" stop-color="#9B385B"/>
</radialGradient>
<linearGradient id="paint1_linear_14_2" x1="0" y1="8.10245" x2="6.77244" y2="8.10245" gradientUnits="userSpaceOnUse">
<stop stop-color="#E74159"/>
<stop offset="0.514" stop-color="#E8425A"/>
<stop offset="1" stop-color="#F08868"/>
</linearGradient>
<linearGradient id="paint2_linear_14_2" x1="0.102188" y1="14.7847" x2="6.08503" y2="14.7847" gradientUnits="userSpaceOnUse">
<stop stop-color="#E74159"/>
<stop offset="0.514" stop-color="#E74159"/>
<stop offset="1" stop-color="#F08868"/>
</linearGradient>
</defs>
</svg>
