<svg width="172" height="52" viewBox="0 0 172 52" fill="none" xmlns="http://www.w3.org/2000/svg">
<g clip-path="url(#clip0)">
<path d="M7.93647 33.41C7.67626 33.41 7.41605 33.41 7.02573 33.15L2.60213 28.6C2.34192 28.34 2.34192 28.08 2.34192 27.69C2.34192 27.3 2.34192 27.17 2.60213 26.78L14.0514 15.6C14.3117 15.34 14.5719 15.34 14.9622 15.34C15.2224 15.34 15.4826 15.34 15.8729 15.6L20.6868 20.15C20.9471 20.15 20.9471 20.67 20.9471 21.06C20.9471 21.45 20.9471 21.58 20.6868 21.97L8.97732 33.15C8.587 33.41 8.32679 33.41 7.93647 33.41Z" fill="url(#paint0_radial)"/>
<path d="M20.5567 11.18L11.1891 2.08C9.75794 0.91 7.93646 0 5.98487 0C4.03328 0 1.95159 0.91 0.520424 2.34C0 2.6 0 2.86 0 3.12C0 3.38 0 3.64 0.260212 4.03L13.1407 16.25C13.4009 16.51 13.6611 16.51 13.6611 16.77C16.5235 19.89 16.7837 24.44 14.1815 27.56L20.4266 21.58C21.8578 20.41 22.7685 18.46 22.7685 16.38C22.7685 14.3 21.9879 12.61 20.5567 11.18Z" fill="url(#paint1_linear)"/>
<path d="M9.36765 31.72C6.63542 28.6 6.24511 23.92 9.10744 20.8L2.86235 26.78C1.43119 28.21 0.520447 30.16 0.520447 32.24C0.520447 34.32 1.43119 36.27 2.86235 37.7L16.5235 51.74C16.9138 52 17.174 52 17.4342 52C17.6944 52 17.9546 52 18.345 51.74C19.7761 50.31 20.6869 48.36 20.6869 46.28C20.6869 44.33 19.7761 42.25 18.345 40.82L9.75797 32.24C9.75797 31.98 9.36765 31.98 9.36765 31.72Z" fill="url(#paint2_linear)"/>
<path d="M49.4403 16.77C48.7897 16.77 48.2693 16.9 47.7489 17.03C47.2285 17.16 46.708 17.42 46.1876 17.68C45.6672 17.94 45.2769 18.33 44.8866 18.72C44.7564 18.85 44.6263 18.98 44.4962 19.11V17.03H40.0726V34.32H44.4962V26.78C44.4962 24.7 44.8866 23.27 45.7973 22.36C46.5779 21.45 47.879 21.06 49.4403 21.06C49.7005 21.06 49.9607 21.06 50.2209 21.06C50.351 21.06 50.6112 21.19 51.0015 21.19L51.2617 21.32V17.29H51.1316C50.6112 16.9 50.0908 16.77 49.4403 16.77Z" fill="white"/>
<path d="M170.309 16.77C169.658 16.77 169.138 16.9 168.617 17.03C168.097 17.16 167.576 17.42 167.056 17.68C166.536 17.94 166.145 18.33 165.755 18.72C165.625 18.85 165.495 18.98 165.365 19.11V17.03H160.941V34.32H165.365V26.78C165.365 24.7 165.755 23.27 166.666 22.36C167.446 21.45 168.747 21.06 170.309 21.06C170.569 21.06 170.829 21.06 171.089 21.06C171.219 21.06 171.48 21.19 171.87 21.19L172.13 21.32V17.29H172C171.48 16.9 170.959 16.77 170.309 16.77Z" fill="white"/>
<path d="M74.5507 19.24C73.77 18.46 72.7292 17.68 71.6883 17.29C70.5174 16.77 69.2163 16.51 67.9153 16.51C66.6142 16.51 65.3132 16.77 64.1422 17.29C63.1014 17.81 62.0605 18.46 61.2799 19.24C60.4992 20.02 59.8487 21.06 59.4584 22.1C59.0681 23.14 58.8079 24.31 58.8079 25.61C58.8079 26.78 59.0681 28.08 59.4584 29.12C59.8487 30.16 60.4992 31.2 61.2799 31.98C62.0605 32.76 63.1014 33.54 64.1422 33.93C65.1831 34.45 66.4841 34.71 67.9153 34.71C69.2163 34.71 70.5174 34.45 71.6883 33.93C72.8593 33.41 73.77 32.76 74.5507 31.98C75.3313 31.2 75.9818 30.16 76.3722 29.12C76.7625 28.08 77.0227 26.91 77.0227 25.61C77.0227 24.44 76.7625 23.27 76.3722 22.1C75.9818 21.06 75.4614 20.15 74.5507 19.24ZM69.8669 30.29C69.2163 30.55 68.6959 30.68 67.9153 30.68C67.1346 30.68 66.6142 30.55 65.9637 30.29C65.4433 30.03 64.9228 29.64 64.5325 29.25C64.1422 28.86 63.7519 28.21 63.6218 27.69C63.3616 27.04 63.3616 26.39 63.3616 25.74C63.3616 25.09 63.4917 24.44 63.6218 23.79C63.7519 23.14 64.1422 22.62 64.5325 22.23C64.9228 21.84 65.4433 21.45 65.9637 21.19C66.4841 20.93 67.1346 20.8 67.9153 20.8C68.6959 20.8 69.2163 20.93 69.8669 21.19C70.5174 21.45 70.9077 21.84 71.4281 22.23C71.8185 22.62 72.2088 23.27 72.3389 23.79C72.5991 24.44 72.7292 25.09 72.7292 25.74C72.7292 26.39 72.5991 27.04 72.3389 27.69C72.0787 28.34 71.8185 28.86 71.4281 29.25C70.9077 29.64 70.3873 30.03 69.8669 30.29Z" fill="white"/>
<path d="M99.1407 25.9999C99.1407 27.2999 98.8805 28.5999 98.23 29.5099C97.5794 30.4199 96.6687 30.8099 95.3676 30.8099C94.7171 30.8099 94.1967 30.6799 93.6763 30.4199C93.2859 30.1599 92.8956 29.7699 92.6354 29.5099C92.3752 29.1199 92.2451 28.5999 92.115 27.9499C91.9849 27.2999 91.9849 26.6499 91.9849 25.9999V17.0299H87.5613V27.2999C87.5613 28.4699 87.6914 29.3799 87.8215 30.2899C87.9516 31.0699 88.2118 31.8499 88.7322 32.4999C89.2526 33.2799 89.9032 33.7999 90.8139 34.1899C91.7247 34.5799 92.7655 34.8399 93.9365 34.8399C95.7579 34.8399 97.9697 34.5799 99.1407 33.1499V34.4499H103.564V17.1599H99.1407V25.9999Z" fill="white"/>
<path d="M124.121 30.42H123.08C122.69 30.42 122.43 30.42 122.169 30.29C121.909 30.29 121.779 30.16 121.519 29.9C121.389 29.77 121.259 29.38 121.129 28.99C120.999 28.73 120.999 28.21 120.999 27.43V20.8H124.902V17.03H120.999V11.96H116.575V17.03H113.713V20.8H116.575V28.34C116.575 29.77 116.705 30.94 117.225 31.85C117.616 32.63 118.136 33.28 118.787 33.67C119.437 34.06 119.958 34.32 120.738 34.45C121.389 34.58 121.909 34.58 122.43 34.58C123.08 34.58 123.601 34.58 124.121 34.45C124.641 34.45 125.032 34.32 125.422 34.32H125.682V30.29L125.292 30.42C124.902 30.42 124.641 30.42 124.121 30.42Z" fill="white"/>
<path d="M148.191 18.85C147.41 18.07 146.629 17.55 145.589 17.16C144.548 16.77 143.507 16.51 142.466 16.51C141.165 16.51 139.864 16.77 138.823 17.16C137.782 17.55 136.871 18.2 136.091 19.11C135.31 19.89 134.79 20.93 134.399 21.97C134.009 23.01 133.749 24.31 133.749 25.61C133.749 26.78 133.879 28.08 134.269 29.12C134.66 30.16 135.18 31.2 135.961 31.98C136.741 32.76 137.652 33.41 138.693 33.93C139.734 34.32 141.035 34.71 142.466 34.71C143.507 34.71 144.548 34.58 145.458 34.32C146.369 34.06 147.15 33.54 147.8 33.15C148.451 32.63 148.971 31.98 149.492 31.33C149.882 30.68 150.142 29.9 150.272 29.12V28.86H145.849V28.99C145.589 29.51 145.198 30.03 144.808 30.42C144.418 30.81 143.637 31.07 142.596 31.07C141.815 31.07 141.165 30.94 140.645 30.81C140.124 30.55 139.734 30.29 139.343 29.9C139.083 29.51 138.823 29.12 138.563 28.6C138.433 28.21 138.303 27.69 138.303 27.3H150.272V27.04C150.402 26.52 150.402 26 150.402 25.61C150.402 25.22 150.402 24.83 150.402 24.57C150.402 23.53 150.142 22.49 149.752 21.45C149.492 20.41 148.841 19.5 148.191 18.85ZM142.336 20.02C143.507 20.02 144.418 20.41 145.068 21.06C145.719 21.71 146.109 22.62 146.109 23.66H138.303C138.303 22.49 138.693 21.58 139.474 21.06C140.124 20.41 141.165 20.02 142.336 20.02Z" fill="white"/>
</g>
<defs>
<radialGradient id="paint0_radial" cx="0" cy="0" r="1" gradientUnits="userSpaceOnUse" gradientTransform="translate(11.6185 24.3776) scale(9.18847 9.18099)">
<stop stop-color="#BF4650"/>
<stop offset="1" stop-color="#9B385B"/>
</radialGradient>
<linearGradient id="paint1_linear" x1="0" y1="13.8462" x2="22.8577" y2="13.8462" gradientUnits="userSpaceOnUse">
<stop stop-color="#E74159"/>
<stop offset="0.514" stop-color="#E8425A"/>
<stop offset="1" stop-color="#F08868"/>
</linearGradient>
<linearGradient id="paint2_linear" x1="0.344934" y1="36.3994" x2="20.5376" y2="36.3994" gradientUnits="userSpaceOnUse">
<stop stop-color="#E74159"/>
<stop offset="0.514" stop-color="#E74159"/>
<stop offset="1" stop-color="#F08868"/>
</linearGradient>
<clipPath id="clip0">
<rect width="172" height="52" fill="white"/>
</clipPath>
</defs>
</svg>
