<svg width="63" height="144" viewBox="0 0 63 144" fill="none" xmlns="http://www.w3.org/2000/svg">
<path d="M1.64463 7.70472L1.71722 7.66837L1.77458 7.61093C5.59536 3.78436 11.1538 1.35455 16.3387 1.35455C21.5047 1.35455 26.3622 3.76857 30.2129 6.91942L55.7661 31.8004C55.7669 31.8013 55.7678 31.8021 55.7687 31.803C59.5891 35.6303 61.6581 40.13 61.6581 45.6762C61.6581 51.2301 59.2299 56.4194 55.4478 59.5185L55.4326 59.531L55.4185 59.5445L41.665 72.7449C46.0081 64.4379 44.5434 54.0225 37.7796 46.5333C37.7519 46.349 37.6864 46.183 37.5826 46.0345C37.4505 45.8455 37.2764 45.7149 37.1285 45.6161C37.0433 45.5592 36.9617 45.5086 36.8819 45.4591C36.661 45.3222 36.4546 45.1942 36.2279 44.9672L36.228 44.9671L36.2187 44.9581L1.09641 11.5592C0.792184 11.0924 0.648563 10.7182 0.576926 10.3953C0.501523 10.0555 0.5 9.75124 0.5 9.39201C0.5 9.02369 0.507285 8.78384 0.624943 8.54816C0.737445 8.32282 0.990947 8.03206 1.64463 7.70472Z" stroke="white"/>
<path d="M8.17294 103.667L8.17298 103.667L8.168 103.662C4.34384 99.8322 1.92078 94.6197 1.92078 89.0749C1.92078 83.532 4.34225 78.321 8.16422 74.4914L21.4299 61.7593C17.002 70.0782 18.7535 80.5133 25.0922 87.8602C25.183 88.3534 25.5833 88.6173 25.7934 88.7558C25.8059 88.7641 25.8177 88.7719 25.8288 88.7793C26.1392 88.9865 26.1392 89.0255 26.1392 89.0744V89.0749V89.2818L26.2854 89.4282L49.7279 112.906C53.5486 116.733 55.9751 122.3 55.9751 127.493C55.9751 133.021 53.567 138.218 49.7634 142.045C49.295 142.352 48.92 142.497 48.5967 142.568C48.2576 142.644 47.9541 142.645 47.5954 142.645C47.2367 142.645 46.9331 142.644 46.594 142.568C46.2714 142.497 45.8972 142.353 45.43 142.047L8.17294 103.667Z" stroke="white"/>
<path d="M7.46259 78.7664L7.46263 78.7664L7.45751 78.7613C6.91038 78.2133 6.89331 77.7104 6.89331 76.6245C6.89331 76.0746 6.89623 75.7849 6.96722 75.5005C7.03356 75.2347 7.1685 74.9444 7.49128 74.4546L38.7101 43.8992L38.7101 43.8992L38.7141 43.8951C39.261 43.3474 39.7625 43.3304 40.8466 43.3304C41.2054 43.3304 41.5089 43.3319 41.848 43.4074C42.1726 43.4796 42.5495 43.6251 43.0206 43.9347L56.1311 56.3552L56.2757 56.4923H56.4578C56.461 56.4963 56.4649 56.5015 56.4694 56.5083C56.5133 56.5742 56.5646 56.7064 56.6046 56.9264C56.6837 57.3621 56.6853 57.9353 56.6853 58.4824C56.6853 59.0323 56.6824 59.3219 56.6114 59.6063C56.5452 59.8717 56.4106 60.1615 56.0889 60.6498L24.1946 91.1728C23.7258 91.4807 23.3518 91.6246 22.989 91.6973C22.6023 91.7747 22.2094 91.7765 21.6664 91.7765C21.3077 91.7765 21.0042 91.7749 20.6651 91.6995C20.3425 91.6277 19.9683 91.4836 19.5012 91.1779L7.46259 78.7664Z" fill="url(#paint0_linear_647_649)" stroke="white"/>
<defs>
<linearGradient id="paint0_linear_647_649" x1="31.7893" y1="-38.948" x2="31.7893" y2="92.2765" gradientUnits="userSpaceOnUse">
<stop stop-color="#2E3146"/>
<stop offset="1" stop-color="transparent"/>
</linearGradient>
</defs>
</svg>
