<?xml version="1.0" encoding="utf-8"?>
<!-- Generator: Adobe Illustrator 25.0.1, SVG Export Plug-In . SVG Version: 6.00 Build 0)  -->
<svg version="1.1" id="Layer_1" xmlns="http://www.w3.org/2000/svg" xmlns:xlink="http://www.w3.org/1999/xlink" x="0px" y="0px"
	 viewBox="0 0 750 271" style="enable-background:new 0 0 750 271;" xml:space="preserve">
<style type="text/css">
	.st0{fill:#FFFFFF;}
	.st1{clip-path:url(#SVGID_2_);}
	.st2{fill:#B20900;}
	.st3{fill:#C31600;}
	.st4{fill:#DA2A00;}
	.st5{fill:#EF3A00;}
	.st6{fill:#FF4B00;}
	.st7{fill:#FF5E00;}
	.st8{fill:#FF750E;}
	.st9{fill:#FF8E22;}
	.st10{fill:#FFA736;}
	.st11{fill:#FFC04A;}
	.st12{clip-path:url(#SVGID_4_);}
	.st13{display:none;}
	.st14{display:inline;}
	.st15{display:inline;fill:#FFFFFF;}
</style>
<rect class="st0" width="750" height="271"/>
<g>
	<g>
		<g>
			<defs>
				
					<rect id="SVGID_1_" x="239.5" y="-239.5" transform="matrix(-1.836970e-16 1 -1 -1.836970e-16 510.5 -239.5)" width="271" height="750"/>
			</defs>
			<clipPath id="SVGID_2_">
				<use xlink:href="#SVGID_1_"  style="overflow:visible;"/>
			</clipPath>
			<g class="st1">
				<polygon class="st2" points="797,271 511.8,271 1177.9,176.9 				"/>
				<polygon class="st3" points="511.8,271 37.4,271 1177.9,176.9 				"/>
				<polygon class="st4" points="37.4,271 0,271 0,224.7 1177.9,176.9 				"/>
				<polygon class="st5" points="0,224.7 0,182.8 1177.9,176.9 				"/>
				<polygon class="st6" points="0,182.8 0,141.7 1177.9,176.9 				"/>
				<polygon class="st7" points="1177.9,176.9 0,141.7 0,95.4 				"/>
				<polygon class="st8" points="1177.9,176.9 0,95.4 0,33.9 				"/>
				<polygon class="st9" points="1177.9,176.9 0,33.9 0,0 325.4,0 				"/>
				<polygon class="st10" points="1177.9,176.9 325.4,0 755.1,0 				"/>
				<polygon class="st11" points="1177.9,176.9 755.1,0 1118.2,0 				"/>
			</g>
		</g>
		<g>
			<defs>
				
					<rect id="SVGID_3_" x="239.5" y="-239.5" transform="matrix(-1.836970e-16 1 -1 -1.836970e-16 510.5 -239.5)" width="271" height="750"/>
			</defs>
			<clipPath id="SVGID_4_">
				<use xlink:href="#SVGID_3_"  style="overflow:visible;"/>
			</clipPath>
			<g class="st12">
				<polygon class="st2" points="-47,271 238.2,271 -428,176.9 				"/>
				<polygon class="st3" points="238.2,271 712.6,271 -428,176.9 				"/>
				<polygon class="st4" points="712.6,271 750,271 750,224.7 -428,176.9 				"/>
				<polygon class="st5" points="750,224.7 750,182.8 -428,176.9 				"/>
				<polygon class="st6" points="750,182.8 750,141.7 -428,176.9 				"/>
				<polygon class="st7" points="-428,176.9 750,141.7 750,95.4 				"/>
				<polygon class="st8" points="-428,176.9 750,95.4 750,33.9 				"/>
				<polygon class="st9" points="-428,176.9 750,33.9 750,0 424.6,0 				"/>
				<polygon class="st10" points="-428,176.9 424.6,0 -5.1,0 				"/>
				<polygon class="st11" points="-428,176.9 -5.1,0 -368.2,0 				"/>
			</g>
		</g>
	</g>
	<g class="st13">
		<g class="st14">
			<g>
				<path class="st0" d="M301.5,141h0.7l-3.2,8.5h-0.5l-3.2-8.5h0.6l2.1,5.8c0.3,0.9,0.5,1.6,0.7,2c0.1-0.3,0.2-0.7,0.5-1.4
					L301.5,141z"/>
				<path class="st0" d="M314,149.5h-4.6V141h4.6v0.5H310v3.2h3.8v0.5H310v3.7h4.1V149.5z"/>
				<path class="st0" d="M325.5,141.4c-1.1,0-1.9,0.3-2.5,1c-0.6,0.7-0.9,1.6-0.9,2.8c0,1.2,0.3,2.2,0.9,2.8c0.6,0.7,1.4,1,2.5,1
					c0.7,0,1.4,0,2-0.3v0.5c-0.6,0.2-1.3,0.3-2.1,0.3c-1.2,0-2.1-0.4-2.8-1.2c-0.7-0.8-1-1.8-1-3.2c0-0.9,0.1-1.6,0.5-2.3
					c0.3-0.6,0.8-1.1,1.4-1.5c0.6-0.4,1.3-0.6,2.2-0.6c0.8,0,1.5,0.2,2.2,0.5l-0.2,0.5C326.9,141.5,326.2,141.4,325.5,141.4z"/>
				<path class="st0" d="M337.5,149.5h-0.6v-8h-2.8V141h6.1v0.5h-2.8V149.5z"/>
				<path class="st0" d="M354.7,145.2c0,1.4-0.3,2.4-1,3.2c-0.7,0.8-1.6,1.2-2.8,1.2c-1.2,0-2.1-0.4-2.8-1.2c-0.7-0.8-1-1.9-1-3.2
					c0-1.3,0.3-2.4,1-3.2c0.7-0.7,1.6-1.1,2.8-1.1c1.2,0,2.1,0.4,2.8,1.1C354.4,142.8,354.7,143.8,354.7,145.2z M347.7,145.2
					c0,1.3,0.3,2.2,0.8,2.8c0.6,0.7,1.4,1,2.4,1c1,0,1.8-0.3,2.3-1c0.6-0.6,0.9-1.6,0.9-2.8c0-1.2-0.3-2.1-0.9-2.8
					c-0.5-0.6-1.3-1-2.3-1c-1,0-1.8,0.3-2.3,1C348,143,347.7,144,347.7,145.2z"/>
				<path class="st0" d="M363.2,145.7v3.7h-0.6V141h2c1.1,0,1.8,0.2,2.3,0.5c0.5,0.4,0.8,1,0.8,1.8c0,0.6-0.2,1-0.4,1.4
					c-0.3,0.4-0.7,0.7-1.4,0.8l2.3,3.9h-0.7l-2.2-3.7H363.2z M363.2,145.2h1.6c0.7,0,1.3-0.2,1.6-0.5c0.5-0.3,0.7-0.8,0.7-1.4
					c0-0.7-0.2-1.1-0.6-1.4c-0.4-0.3-1-0.4-1.9-0.4h-1.4V145.2z"/>
				<path class="st0" d="M391.2,145.1c0,1.4-0.4,2.5-1.1,3.2c-0.8,0.7-1.9,1.1-3.3,1.1h-2V141h2.3c1.4,0,2.4,0.3,3.1,1.1
					C390.9,142.7,391.2,143.8,391.2,145.1z M390.6,145.2c0-1.2-0.3-2.1-0.9-2.8c-0.6-0.6-1.5-0.9-2.7-0.9h-1.6v7.5h1.4
					C389.3,149,390.6,147.7,390.6,145.2z"/>
				<path class="st0" d="M403.8,149.5h-4.7V141h4.7v0.5h-4.1v3.2h3.8v0.5h-3.8v3.7h4.1V149.5z"/>
				<path class="st0" d="M416.4,147.3c0,0.7-0.3,1.3-0.8,1.7c-0.5,0.4-1.3,0.6-2.1,0.6c-1.1,0-1.9-0.1-2.4-0.3v-0.6
					c0.6,0.3,1.4,0.4,2.3,0.4c0.7,0,1.3-0.1,1.7-0.5c0.4-0.3,0.6-0.7,0.6-1.2c0-0.3-0.1-0.7-0.2-0.8c-0.1-0.2-0.4-0.4-0.6-0.6
					c-0.3-0.2-0.8-0.4-1.4-0.6c-0.9-0.3-1.5-0.6-1.8-0.9c-0.3-0.4-0.5-0.8-0.5-1.4c0-0.6,0.3-1.1,0.8-1.6c0.5-0.4,1.1-0.6,1.9-0.6
					c0.8,0,1.6,0.2,2.3,0.5l-0.2,0.5c-0.7-0.3-1.4-0.5-2-0.5s-1.2,0.1-1.5,0.5c-0.4,0.3-0.6,0.7-0.6,1.1c0,0.3,0,0.6,0.2,0.8
					c0.1,0.2,0.3,0.4,0.5,0.6c0.3,0.2,0.8,0.4,1.4,0.6c0.7,0.2,1.1,0.4,1.5,0.6c0.3,0.2,0.6,0.5,0.7,0.7
					C416.3,146.5,416.4,146.9,416.4,147.3z"/>
				<path class="st0" d="M424.2,149.5V141h0.6v8.5H424.2z"/>
				<path class="st0" d="M436.5,145.2h3.1v3.9c-0.8,0.3-1.8,0.5-2.8,0.5c-1.3,0-2.4-0.4-3.1-1.1c-0.7-0.8-1.1-1.9-1.1-3.2
					c0-0.9,0.2-1.6,0.5-2.3c0.3-0.7,0.9-1.2,1.5-1.5c0.7-0.4,1.4-0.6,2.3-0.6c1,0,1.8,0.2,2.5,0.5l-0.2,0.5
					c-0.7-0.3-1.5-0.5-2.3-0.5c-1.1,0-2,0.3-2.7,1c-0.7,0.7-1,1.6-1,2.8c0,1.3,0.3,2.3,1,2.9c0.6,0.7,1.5,1,2.7,1
					c0.8,0,1.4-0.1,2-0.4v-3h-2.5V145.2z"/>
				<path class="st0" d="M454,149.5h-0.6l-5.1-7.5h0c0,0.9,0,1.5,0,2v5.5h-0.6V141h0.6l5.1,7.5l0,0c0-0.7-0.1-1.4-0.1-2V141h0.6
					V149.5z"/>
			</g>
			<g>
				<path class="st0" d="M292.7,132.5l-1.4-3.5h-4.4l-1.3,3.5h-1.3l4.3-10.9h1l4.3,10.9H292.7z M290.9,127.9l-1.3-3.3
					c-0.2-0.5-0.3-1-0.5-1.6c-0.1,0.5-0.3,1-0.5,1.6l-1.3,3.3H290.9z"/>
				<path class="st0" d="M295.5,121.6h3.1c1.5,0,2.5,0.2,3.2,0.7c0.7,0.4,0.9,1.1,0.9,2c0,0.7-0.2,1.2-0.5,1.6
					c-0.4,0.5-0.9,0.7-1.6,0.9v0.1c1.7,0.3,2.5,1.2,2.5,2.6c0,1-0.3,1.8-1,2.3c-0.6,0.5-1.6,0.8-2.7,0.8h-3.8V121.6z M296.8,126.3
					h2.1c0.9,0,1.5-0.2,1.9-0.4c0.4-0.3,0.6-0.8,0.6-1.4c0-0.7-0.2-1-0.7-1.3c-0.4-0.3-1.1-0.5-2.1-0.5h-1.9V126.3z M296.8,127.3
					v4.1h2.3c0.9,0,1.6-0.2,2-0.5c0.4-0.3,0.7-0.9,0.7-1.6c0-0.7-0.2-1.2-0.7-1.5c-0.5-0.3-1.2-0.5-2.1-0.5H296.8z"/>
				<path class="st0" d="M311.5,129.6c0,1-0.3,1.7-1,2.2c-0.7,0.5-1.6,0.8-2.8,0.8c-1.3,0-2.3-0.2-3-0.5v-1.2
					c0.4,0.2,0.9,0.3,1.4,0.5c0.5,0.1,1.1,0.2,1.6,0.2c0.8,0,1.5-0.2,1.9-0.5c0.4-0.3,0.7-0.8,0.7-1.3c0-0.4-0.1-0.7-0.2-0.9
					c-0.2-0.2-0.4-0.4-0.8-0.7c-0.4-0.2-0.9-0.5-1.6-0.7c-1-0.4-1.7-0.8-2.2-1.3c-0.4-0.5-0.6-1.1-0.6-1.9c0-0.8,0.3-1.5,0.9-2
					c0.6-0.5,1.4-0.7,2.5-0.7c1.1,0,2.1,0.2,3,0.6l-0.4,1.1c-0.9-0.4-1.8-0.5-2.6-0.5c-0.6,0-1.2,0.1-1.6,0.4
					c-0.4,0.3-0.5,0.7-0.5,1.2c0,0.4,0.1,0.7,0.2,0.9c0.1,0.3,0.4,0.5,0.7,0.7c0.3,0.2,0.8,0.4,1.5,0.7c1.1,0.4,1.9,0.9,2.4,1.3
					C311.3,128.2,311.5,128.8,311.5,129.6z"/>
				<path class="st0" d="M317.1,132.5h-1.3v-9.8h-3.5v-1.1h8.1v1.1h-3.4V132.5z"/>
				<path class="st0" d="M323.5,128v4.5h-1.3v-10.9h3c1.4,0,2.3,0.3,3,0.8c0.6,0.5,1,1.3,1,2.3c0,1.4-0.7,2.4-2.2,3l3,4.9h-1.5
					l-2.7-4.5H323.5z M323.5,126.9h1.7c0.9,0,1.6-0.1,2-0.5c0.4-0.3,0.6-0.9,0.6-1.6c0-0.7-0.2-1.2-0.6-1.5
					c-0.4-0.3-1.1-0.5-2.1-0.5h-1.6V126.9z"/>
				<path class="st0" d="M338.5,132.5l-1.4-3.5h-4.4l-1.3,3.5h-1.3l4.4-10.9h1l4.3,10.9H338.5z M336.7,127.9l-1.2-3.3
					c-0.1-0.5-0.3-1-0.5-1.6c-0.1,0.5-0.2,1-0.5,1.6l-1.3,3.3H336.7z"/>
				<path class="st0" d="M346,122.6c-1.2,0-2.1,0.4-2.8,1.2c-0.7,0.8-1,1.9-1,3.3c0,1.4,0.3,2.5,1,3.3c0.7,0.8,1.6,1.2,2.8,1.2
					c0.8,0,1.7-0.1,2.6-0.4v1.1c-0.8,0.3-1.7,0.5-2.8,0.5c-1.6,0-2.8-0.5-3.7-1.5c-0.9-0.9-1.3-2.3-1.3-4.2c0-1.1,0.2-2,0.6-2.9
					c0.4-0.9,1-1.5,1.8-2c0.8-0.5,1.8-0.7,2.8-0.7c1.1,0,2.1,0.2,3,0.6l-0.5,1.1C347.6,122.8,346.8,122.6,346,122.6z"/>
				<path class="st0" d="M354.3,132.5H353v-9.8h-3.4v-1.1h8.2v1.1h-3.5V132.5z"/>
				<path class="st0" d="M363.3,121.6h3.1c1.4,0,2.5,0.2,3.1,0.7c0.6,0.4,1,1.1,1,2c0,0.7-0.2,1.2-0.6,1.6c-0.3,0.5-0.9,0.7-1.6,0.9
					v0.1c1.7,0.3,2.5,1.2,2.5,2.6c0,1-0.3,1.8-1,2.3c-0.7,0.5-1.6,0.8-2.8,0.8h-3.8V121.6z M364.6,126.3h2.1c0.9,0,1.5-0.2,1.9-0.4
					c0.4-0.3,0.6-0.8,0.6-1.4c0-0.7-0.2-1-0.6-1.3c-0.4-0.3-1.1-0.5-2.1-0.5h-1.8V126.3z M364.6,127.3v4.1h2.2c0.9,0,1.6-0.2,2-0.5
					c0.4-0.3,0.7-0.9,0.7-1.6c0-0.7-0.3-1.2-0.7-1.5c-0.5-0.3-1.2-0.5-2.1-0.5H364.6z"/>
				<path class="st0" d="M380.1,132.5l-1.4-3.5h-4.3l-1.4,3.5h-1.3l4.3-10.9h1.1l4.3,10.9H380.1z M378.4,127.9l-1.3-3.3
					c-0.1-0.5-0.3-1-0.4-1.6c-0.2,0.5-0.3,1-0.5,1.6l-1.2,3.3H378.4z"/>
				<path class="st0" d="M387.6,122.6c-1.2,0-2.1,0.4-2.8,1.2c-0.7,0.8-1,1.9-1,3.3c0,1.4,0.3,2.5,1,3.3c0.6,0.8,1.6,1.2,2.8,1.2
					c0.7,0,1.6-0.1,2.6-0.4v1.1c-0.7,0.3-1.7,0.5-2.8,0.5c-1.6,0-2.9-0.5-3.7-1.5c-0.9-0.9-1.3-2.3-1.3-4.2c0-1.1,0.2-2,0.6-2.9
					c0.4-0.9,1-1.5,1.8-2c0.8-0.5,1.7-0.7,2.8-0.7c1.2,0,2.1,0.2,3,0.6l-0.6,1.1C389.2,122.8,388.4,122.6,387.6,122.6z"/>
				<path class="st0" d="M400.4,132.5h-1.5l-4-5.3l-1.1,1v4.3h-1.3v-10.9h1.3v5.4l4.9-5.4h1.5l-4.4,4.7L400.4,132.5z"/>
				<path class="st0" d="M406.8,126.8h3.7v5.2c-0.6,0.2-1.2,0.4-1.8,0.5c-0.6,0.1-1.3,0.2-2.1,0.2c-1.6,0-3-0.5-3.9-1.5
					c-0.9-1-1.4-2.3-1.4-4.1c0-1.1,0.2-2.1,0.7-3c0.5-0.9,1.1-1.5,2-2c0.8-0.5,1.9-0.7,3-0.7c1.2,0,2.3,0.2,3.3,0.6l-0.5,1.1
					c-1-0.4-1.9-0.6-2.8-0.6c-1.4,0-2.4,0.4-3.1,1.2c-0.8,0.8-1.2,1.9-1.2,3.3c0,1.4,0.4,2.5,1.1,3.3c0.7,0.8,1.8,1.2,3.2,1.2
					c0.8,0,1.5-0.1,2.2-0.3v-3.4h-2.4V126.8z"/>
				<path class="st0" d="M414.3,128v4.5H413v-10.9h3c1.3,0,2.3,0.3,2.9,0.8c0.6,0.5,1,1.3,1,2.3c0,1.4-0.7,2.4-2.2,3l2.9,4.9h-1.5
					l-2.6-4.5H414.3z M414.3,126.9h1.8c0.9,0,1.6-0.1,2-0.5c0.4-0.3,0.6-0.9,0.6-1.6c0-0.7-0.3-1.2-0.7-1.5c-0.4-0.3-1.1-0.5-2-0.5
					h-1.7V126.9z"/>
				<path class="st0" d="M431.9,127c0,1.8-0.4,3.2-1.3,4.2c-0.9,1-2.1,1.5-3.7,1.5c-1.6,0-2.8-0.5-3.7-1.5c-0.9-1-1.3-2.3-1.3-4.2
					c0-1.8,0.5-3.1,1.3-4.1c0.9-1,2.1-1.5,3.7-1.5c1.6,0,2.8,0.5,3.7,1.5C431.5,123.9,431.9,125.3,431.9,127z M423.2,127
					c0,1.5,0.3,2.6,0.9,3.4c0.6,0.8,1.5,1.2,2.7,1.2c1.2,0,2.1-0.4,2.7-1.2c0.6-0.8,0.9-1.9,0.9-3.4c0-1.4-0.3-2.5-0.9-3.3
					c-0.6-0.7-1.5-1.1-2.7-1.1c-1.2,0-2.1,0.4-2.7,1.1C423.6,124.4,423.2,125.6,423.2,127z"/>
				<path class="st0" d="M442.6,121.6v7c0,1.3-0.4,2.3-1.1,2.9c-0.7,0.7-1.8,1.1-3.1,1.1c-1.3,0-2.3-0.4-3-1.1
					c-0.7-0.7-1.1-1.7-1.1-3v-7h1.3v7.1c0,0.9,0.2,1.6,0.7,2.1c0.5,0.5,1.3,0.8,2.2,0.8c0.9,0,1.6-0.3,2.1-0.8
					c0.6-0.5,0.8-1.2,0.8-2.1v-7.1H442.6z"/>
				<path class="st0" d="M454,132.5h-1.4l-6-9.2h0c0.1,1.1,0.1,2.1,0.1,3v6.2h-1.2v-10.9h1.4l5.9,9.1h0.1c0-0.1,0-0.6-0.1-1.3
					c0-0.7,0-1.2,0-1.5v-6.3h1.2V132.5z"/>
				<path class="st0" d="M465.7,126.9c0,1.8-0.5,3.2-1.5,4.1c-0.9,1-2.4,1.4-4.2,1.4h-3v-10.9h3.3c1.7,0,3,0.5,3.9,1.4
					C465.2,123.9,465.7,125.3,465.7,126.9z M464.4,127c0-1.4-0.4-2.5-1.1-3.2c-0.7-0.7-1.8-1.1-3.2-1.1h-1.8v8.7h1.6
					c1.5,0,2.6-0.4,3.4-1.1C464,129.6,464.4,128.5,464.4,127z"/>
			</g>
		</g>
		<path class="st15" d="M477.6,113.7v43.5H272.4v-43.5H477.6 M479.9,111.4H270.1v48.1h209.8V111.4L479.9,111.4z"/>
	</g>
</g>
</svg>
