<svg width="20" height="20" viewBox="0 0 20 20" fill="none" xmlns="http://www.w3.org/2000/svg">
<path d="M0.833252 3.83338C0.833252 2.17652 2.1764 0.833374 3.83325 0.833374H16.1666C17.8234 0.833374 19.1666 2.17652 19.1666 3.83337V16.1667C19.1666 17.8236 17.8234 19.1667 16.1666 19.1667H3.83325C2.1764 19.1667 0.833252 17.8236 0.833252 16.1667V3.83338Z" fill="white"/>
<path d="M15.8333 2.5H4.16667C3.24167 2.5 2.5 3.25 2.5 4.16667V15.8333C2.5 16.75 3.24167 17.5 4.16667 17.5H15.8333C16.7583 17.5 17.5 16.75 17.5 15.8333V4.16667C17.5 3.25 16.7583 2.5 15.8333 2.5ZM8.33333 14.1667L4.16667 10L5.34167 8.825L8.33333 11.8083L14.6583 5.48333L15.8333 6.66667L8.33333 14.1667Z" fill="#3B4256"/>
</svg>
