<svg xmlns="http://www.w3.org/2000/svg" xmlns:xlink="http://www.w3.org/1999/xlink" viewBox="0 0 85.94 19.01">
    <defs>
        <style>
            .cls-1 {
                fill: url(#radial-gradient);
            }

            .cls-2 {
                fill: url(#linear-gradient);
            }

            .cls-3 {
                fill: url(#linear-gradient-2);
            }

            .cls-4 {
                fill: #fff;
            }
        </style>
        <radialGradient id="radial-gradient" cx="4.25" cy="8.92" r="3.36" gradientUnits="userSpaceOnUse">
            <stop offset="0" stop-color="#be4650" />
            <stop offset="1" stop-color="#9b375a" />
        </radialGradient>
        <linearGradient id="linear-gradient" y1="5.11" x2="8.35" y2="5.11" gradientUnits="userSpaceOnUse">
            <stop offset="0" stop-color="#ff3c55" />
            <stop offset="0.51" stop-color="#ff3d56" />
            <stop offset="1" stop-color="#ff8b65" />
        </linearGradient>
        <linearGradient id="linear-gradient-2" x1="0.13" y1="13.31" x2="7.5" y2="13.31" gradientUnits="userSpaceOnUse">
            <stop offset="0" stop-color="#ff3c55" />
            <stop offset="0.51" stop-color="#ff3c55" />
            <stop offset="1" stop-color="#ff8b65" />
        </linearGradient>
    </defs>
    <g id="Layer_2" data-name="Layer 2">
        <g id="Layer_1-2" data-name="Layer 1">
            <path class="cls-1"
                d="M3,12.23a.47.47,0,0,1-.31-.12L1,10.42A.43.43,0,0,1,1,9.8L5.2,5.73a.43.43,0,0,1,.6,0L7.52,7.39a.43.43,0,0,1,0,.62l-4.26,4.1A.42.42,0,0,1,3,12.23Z" />
            <path class="cls-2"
                d="M7.52,4.08,4.1.79A2.8,2.8,0,0,0,2.15,0a2.83,2.83,0,0,0-2,.86A.45.45,0,0,0,0,1.17a.42.42,0,0,0,.13.3L4.82,6a2.73,2.73,0,0,1,.25.23,3,3,0,0,1,.16,4L7.52,8h0a2.74,2.74,0,0,0,0-3.93Z" />
            <path class="cls-3"
                d="M3.4,11.62a3,3,0,0,1-.16-4L1,9.8H1a2.71,2.71,0,0,0-.84,2,2.75,2.75,0,0,0,.81,2l5.13,5.13a.42.42,0,0,0,.3.12.47.47,0,0,0,.31-.12,2.82,2.82,0,0,0,0-4L3.58,11.8h0Z" />
            <path class="cls-4"
                d="M19.46,4.67a3.21,3.21,0,0,0-.92.14h0a3.4,3.4,0,0,0-.85.36A2.87,2.87,0,0,0,17,5.7a1.37,1.37,0,0,0-.2.22V4.79H14.39v9.36H16.8V10.09a3.56,3.56,0,0,1,.68-2.41,2.57,2.57,0,0,1,2-.74l.4,0a3.2,3.2,0,0,1,.41.08l.17,0V4.86l-.09,0A2.33,2.33,0,0,0,19.46,4.67Z" />
            <path class="cls-4"
                d="M33,6h0A4.81,4.81,0,0,0,31.46,5a5.45,5.45,0,0,0-4.05,0A4.72,4.72,0,0,0,25.86,6a4.86,4.86,0,0,0-1,1.58,5.2,5.2,0,0,0,0,3.75,4.88,4.88,0,0,0,1,1.56A4.6,4.6,0,0,0,27.41,14a5.45,5.45,0,0,0,4.05,0A4.68,4.68,0,0,0,33,12.91a4.74,4.74,0,0,0,1-1.56A5.2,5.2,0,0,0,34,7.6,4.72,4.72,0,0,0,33,6Zm-2.56,6a2.51,2.51,0,0,1-1,.22,2.43,2.43,0,0,1-1-.22,2.6,2.6,0,0,1-.79-.59,2.7,2.7,0,0,1-.51-.87,3.21,3.21,0,0,1,0-2.12,2.5,2.5,0,0,1,.51-.87,2.38,2.38,0,0,1,1.82-.81,2.43,2.43,0,0,1,1.84.81,2.62,2.62,0,0,1,.52.87,3.05,3.05,0,0,1,0,2.12,2.72,2.72,0,0,1-.52.87A2.64,2.64,0,0,1,30.47,12Z" />
            <path class="cls-4"
                d="M46.27,9.62a3.28,3.28,0,0,1-.51,1.88,1.72,1.72,0,0,1-1.53.73,1.79,1.79,0,0,1-.88-.2,1.61,1.61,0,0,1-.55-.52,2.41,2.41,0,0,1-.3-.82,5.19,5.19,0,0,1-.1-1.07V4.79H40v5.53a7.82,7.82,0,0,0,.13,1.59,3.41,3.41,0,0,0,.48,1.18,2.77,2.77,0,0,0,1.11.94,3.92,3.92,0,0,0,1.73.35,3.7,3.7,0,0,0,2.82-.92v.69h2.4V4.79h-2.4Z" />
            <path class="cls-4"
                d="M59.81,12.05h-.59A2.62,2.62,0,0,1,58.7,12a.69.69,0,0,1-.35-.2,1.09,1.09,0,0,1-.23-.47,4.26,4.26,0,0,1-.08-.9V6.84h2.08v-2H58V2H55.63V4.79H54.1V6.84h1.53v4.09A4.25,4.25,0,0,0,56,12.78a2.48,2.48,0,0,0,.82,1,2.23,2.23,0,0,0,1,.4,6.33,6.33,0,0,0,.91.07,8.84,8.84,0,0,0,.91,0,6.67,6.67,0,0,0,.69-.08h.12v-2.2l-.19.07A1.09,1.09,0,0,1,59.81,12.05Z" />
            <path class="cls-4"
                d="M72.73,5.77h0a4.43,4.43,0,0,0-3.09-1.21,4.94,4.94,0,0,0-2,.37,4.14,4.14,0,0,0-1.45,1,4.61,4.61,0,0,0-.89,1.56A5.85,5.85,0,0,0,65,9.47a6.26,6.26,0,0,0,.29,1.91A4.45,4.45,0,0,0,66.18,13,4.24,4.24,0,0,0,67.64,14a5.22,5.22,0,0,0,2.06.38,4.87,4.87,0,0,0,1.62-.25,4.29,4.29,0,0,0,1.27-.68,3.55,3.55,0,0,0,.88-1,3.4,3.4,0,0,0,.44-1.17l0-.16h-2.4l0,.09a2,2,0,0,1-.56.78,1.91,1.91,0,0,1-1.23.32,2.73,2.73,0,0,1-1.06-.18,1.76,1.76,0,0,1-.68-.47,2.08,2.08,0,0,1-.39-.7,4.1,4.1,0,0,1-.15-.73h6.45l0-.11A7.08,7.08,0,0,0,74,9.35c0-.22,0-.41,0-.56a4.24,4.24,0,0,0-.34-1.68A4.39,4.39,0,0,0,72.73,5.77Zm-3.15.67A2,2,0,0,1,71.07,7a2,2,0,0,1,.57,1.4H67.41A1.8,1.8,0,0,1,68,7,2.29,2.29,0,0,1,69.58,6.44Z" />
            <path class="cls-4"
                d="M85.85,4.82A2.3,2.3,0,0,0,85,4.67a3.21,3.21,0,0,0-.92.14,3.4,3.4,0,0,0-.85.36,2.87,2.87,0,0,0-.69.53,2.09,2.09,0,0,0-.2.22V4.79H79.89v9.36H82.3V10.09A3.56,3.56,0,0,1,83,7.68a2.57,2.57,0,0,1,2-.74l.4,0a3.2,3.2,0,0,1,.41.08l.17,0V4.86Z" />
        </g>
    </g>
</svg>