<svg width="14" height="14" viewBox="0 0 14 14" fill="none" xmlns="http://www.w3.org/2000/svg">
<path d="M4.21646 6.85314C4.26739 6.8067 4.30779 6.75154 4.33536 6.69081C4.36293 6.63008 4.37712 6.56497 4.37712 6.49922C4.37712 6.43346 4.36293 6.36836 4.33536 6.30762C4.30779 6.24689 4.26739 6.19173 4.21646 6.14529L1.86836 3.99976L12.5787 3.99976C12.7237 3.99976 12.8628 3.9471 12.9653 3.85335C13.0679 3.7596 13.1255 3.63245 13.1255 3.49987C13.1255 3.36729 13.0679 3.24014 12.9653 3.14639C12.8628 3.05265 12.7237 2.99998 12.5787 2.99998L1.86836 2.99998L4.21647 0.854446C4.31915 0.76058 4.37683 0.63327 4.37683 0.500523C4.37683 0.367776 4.31915 0.240466 4.21647 0.1466C4.11379 0.0527337 3.97452 6.94842e-07 3.82931 6.69452e-07C3.68409 6.44062e-07 3.54483 0.0527336 3.44215 0.1466L0.161142 3.14595C0.110217 3.19238 0.0698139 3.24755 0.0422464 3.30828C0.0146788 3.36901 0.000488905 3.43412 0.000488893 3.49987C0.000488882 3.56562 0.0146788 3.63073 0.0422463 3.69146C0.0698138 3.75219 0.110217 3.80736 0.161142 3.85379L3.44215 6.85314C3.49294 6.89969 3.55329 6.93663 3.61972 6.96183C3.68616 6.98703 3.75738 7 3.82931 7C3.90123 7 3.97245 6.98703 4.03889 6.96183C4.10532 6.93663 4.16567 6.89969 4.21646 6.85314Z" fill="white"/>
<path d="M4.21646 6.85314C4.26739 6.8067 4.30779 6.75154 4.33536 6.69081C4.36293 6.63008 4.37712 6.56497 4.37712 6.49922C4.37712 6.43346 4.36293 6.36836 4.33536 6.30762C4.30779 6.24689 4.26739 6.19173 4.21646 6.14529L1.86836 3.99976L12.5787 3.99976C12.7237 3.99976 12.8628 3.9471 12.9653 3.85335C13.0679 3.7596 13.1255 3.63245 13.1255 3.49987C13.1255 3.36729 13.0679 3.24014 12.9653 3.14639C12.8628 3.05265 12.7237 2.99998 12.5787 2.99998L1.86836 2.99998L4.21647 0.854446C4.31915 0.76058 4.37683 0.63327 4.37683 0.500523C4.37683 0.367776 4.31915 0.240466 4.21647 0.1466C4.11379 0.0527337 3.97452 6.94842e-07 3.82931 6.69452e-07C3.68409 6.44062e-07 3.54483 0.0527336 3.44215 0.1466L0.161142 3.14595C0.110217 3.19238 0.0698139 3.24755 0.0422464 3.30828C0.0146788 3.36901 0.000488905 3.43412 0.000488893 3.49987C0.000488882 3.56562 0.0146788 3.63073 0.0422463 3.69146C0.0698138 3.75219 0.110217 3.80736 0.161142 3.85379L3.44215 6.85314C3.49294 6.89969 3.55329 6.93663 3.61972 6.96183C3.68616 6.98703 3.75738 7 3.82931 7C3.90123 7 3.97245 6.98703 4.03889 6.96183C4.10532 6.93663 4.16567 6.89969 4.21646 6.85314Z" stroke="white"/>
<path d="M9.78451 7.14686C9.73359 7.1933 9.69318 7.24846 9.66562 7.30919C9.63805 7.36992 9.62386 7.43503 9.62386 7.50078C9.62386 7.56654 9.63805 7.63164 9.66562 7.69238C9.69318 7.75311 9.73359 7.80827 9.78451 7.85471L12.1326 10.0002L1.42232 10.0002C1.27729 10.0002 1.1382 10.0529 1.03565 10.1467C0.9331 10.2404 0.875488 10.3676 0.875488 10.5001C0.875488 10.6327 0.9331 10.7599 1.03565 10.8536C1.1382 10.9474 1.27729 11 1.42232 11L12.1326 11L9.78451 13.1456C9.68183 13.2394 9.62415 13.3667 9.62415 13.4995C9.62415 13.6322 9.68183 13.7595 9.78451 13.8534C9.88719 13.9473 10.0265 14 10.1717 14C10.3169 14 10.4561 13.9473 10.5588 13.8534L13.8398 10.8541C13.8908 10.8076 13.9312 10.7525 13.9587 10.6917C13.9863 10.631 14.0005 10.5659 14.0005 10.5001C14.0005 10.4344 13.9863 10.3693 13.9587 10.3085C13.9312 10.2478 13.8908 10.1926 13.8398 10.1462L10.5588 7.14686C10.508 7.10031 10.4477 7.06337 10.3813 7.03817C10.3148 7.01297 10.2436 7 10.1717 7C10.0997 7 10.0285 7.01297 9.96209 7.03817C9.89565 7.06337 9.83531 7.10031 9.78451 7.14686Z" fill="white"/>
<path d="M9.78451 7.14686C9.73359 7.1933 9.69318 7.24846 9.66562 7.30919C9.63805 7.36992 9.62386 7.43503 9.62386 7.50078C9.62386 7.56654 9.63805 7.63164 9.66562 7.69238C9.69318 7.75311 9.73359 7.80827 9.78451 7.85471L12.1326 10.0002L1.42232 10.0002C1.27729 10.0002 1.1382 10.0529 1.03565 10.1467C0.9331 10.2404 0.875488 10.3676 0.875488 10.5001C0.875488 10.6327 0.9331 10.7599 1.03565 10.8536C1.1382 10.9474 1.27729 11 1.42232 11L12.1326 11L9.78451 13.1456C9.68183 13.2394 9.62415 13.3667 9.62415 13.4995C9.62415 13.6322 9.68183 13.7595 9.78451 13.8534C9.88719 13.9473 10.0265 14 10.1717 14C10.3169 14 10.4561 13.9473 10.5588 13.8534L13.8398 10.8541C13.8908 10.8076 13.9312 10.7525 13.9587 10.6917C13.9863 10.631 14.0005 10.5659 14.0005 10.5001C14.0005 10.4344 13.9863 10.3693 13.9587 10.3085C13.9312 10.2478 13.8908 10.1926 13.8398 10.1462L10.5588 7.14686C10.508 7.10031 10.4477 7.06337 10.3813 7.03817C10.3148 7.01297 10.2436 7 10.1717 7C10.0997 7 10.0285 7.01297 9.96209 7.03817C9.89565 7.06337 9.83531 7.10031 9.78451 7.14686Z" stroke="white"/>
</svg>
