<svg width="22" height="22" viewBox="0 0 22 22" fill="none" xmlns="http://www.w3.org/2000/svg">
<path d="M0 11C0 4.92487 4.92487 0 11 0C17.0751 0 22 4.92487 22 11C22 17.0751 17.0751 22 11 22C4.92487 22 0 17.0751 0 11Z" fill="#F74955"/>
<path d="M12.6184 6.74708C10.4934 5.13637 8.42436 5.19389 6.29936 6.74708V7.49491C8.42436 8.99057 10.4934 9.0481 12.6184 7.49491V6.74708ZM15.8619 15.2608H14.5757V16.5839H13.0658V15.2608H11.7237V13.7077H13.0658V12.327H14.5757V13.7077H15.8619V15.2608ZM14.1283 9.96851C16.4211 10.1411 18.2105 12.0969 18.2105 14.4555C18.2105 16.9866 16.1974 19 13.7928 19C12.227 19 10.829 18.1371 10.0461 16.8716C8.36844 17.0441 6.63488 16.4114 4.78949 14.9732V5.94172C8.08883 3.4106 10.8849 3.29555 14.1283 5.94172V9.96851ZM9.48686 15.3759C9.43094 15.0883 9.37502 14.8006 9.37502 14.4555C9.37502 14.1679 9.43094 13.9378 9.48686 13.6501C8.42436 13.6501 7.30594 13.3625 6.29936 12.7297V14.1679C7.36186 14.9732 8.42436 15.3759 9.48686 15.3759ZM10.102 12.0394C10.6612 11.119 11.5559 10.4287 12.6184 10.0836V9.33573C10.5494 10.5438 8.36844 10.4862 6.29936 9.2782V10.9464C7.58554 11.8668 8.81581 12.212 10.102 12.0394ZM13.7928 11.5217C12.1711 11.5217 10.8849 12.8448 10.8849 14.4555C10.8849 16.1237 12.1711 17.4468 13.7928 17.4468C15.4145 17.4468 16.7007 16.1237 16.7007 14.4555C16.7007 12.8448 15.4145 11.5217 13.7928 11.5217Z" fill="white"/>
<rect x="12.6842" y="11.8947" width="2.36842" height="4.73684" fill="#F74955"/>
<rect x="11.8947" y="13.4737" width="3.94737" height="1.57895" fill="white"/>
</svg>
